<?xml version="1.0" encoding="utf-8"?>
<svg viewBox="0 0 180 180" xmlns="http://www.w3.org/2000/svg">
  <g id="__1e_NOcu__checkbox_180px-" stroke="none" stroke-width="1" fill="none" fill-rule="evenodd">
    <g id="__1e_NOcu__Dialog-/-Header-Copy-19">
      <mask id="__1e_NOcu__mask-2" fill="white">
        <rect x="0" y="0" width="180" height="180" transform="matrix(1, 0, 0, 1, 0, 0)"/>
      </mask>
      <rect id="__1e_NOcu__Mask" x="0" y="0" width="180" height="180" transform="matrix(1, 0, 0, 1, 0, 0)" fill="#FAFAFA"/>
      <g id="__1e_NOcu__Selection-Control-/-Checkbox-/-On-/-Enabled" mask="url(#__1e_NOcu__mask-2)">
        <g transform="translate(78.000000, 27.000000)" id="__1e_NOcu__Icon-/-Toggle-/-Checkbox-/-Fill">
          <g>
            <mask id="__1e_NOcu__mask-4" fill="white">
              <path d="M19,3 L5,3 C3.89,3 3,3.9 3,5 L3,19 C3,20.1 3.89,21 5,21 L19,21 C20.11,21 21,20.1 21,19 L21,5 C21,3.9 20.11,3 19,3 Z M10,17 L5,12 L6.41,10.59 L10,14.17 L17.59,6.58 L19,8 L10,17 Z" transform="matrix(1, 0, 0, 1, 0, 0)"/>
            </mask>
            <g id="__1e_NOcu__ic_check_box_24px" fill-rule="nonzero"/>
            <g id="__1e_NOcu__✱-/-Color-/-Icons-/-Primary-or-Secondary" mask="url(#__1e_NOcu__mask-4)" fill="#212121" fill-rule="evenodd">
              <g id="__1e_NOcu__✱-/-Color-/-Primary-/-Main">
                <g id="__1e_NOcu__✱-/-Color-/-Primary-/-900">
                  <rect id="__1e_NOcu__Rectangle-13" x="0" y="0" width="24" height="24"/>
                </g>
              </g>
            </g>
          </g>
        </g>
      </g>
      <g id="__1e_NOcu__Selection-Control-/-Checkbox-/-Off-/-Enabled" mask="url(#__1e_NOcu__mask-2)">
        <g transform="translate(78.000000, 61.000000)" id="__1e_NOcu__Icon-/-Toggle-/-Checkbox-Outline-/-Fill">
          <g>
            <mask id="__1e_NOcu__mask-6" fill="white">
              <path d="M19,5 L19,19 L5,19 L5,5 L19,5 Z M19,3 L5,3 C3.9,3 3,3.9 3,5 L3,19 C3,20.1 3.9,21 5,21 L19,21 C20.1,21 21,20.1 21,19 L21,5 C21,3.9 20.1,3 19,3 Z" transform="matrix(1, 0, 0, 1, 0, 0)"/>
            </mask>
            <g id="__1e_NOcu__ic_check_box_outline_blank_24px" fill-rule="nonzero"/>
            <g id="__1e_NOcu__✱-/-Color-/-Icons-/-Black-/-Inactive" mask="url(#__1e_NOcu__mask-6)" fill="#000000" fill-rule="evenodd" opacity="0.54">
              <rect id="__1e_NOcu__Rectangle" x="0" y="0" width="24" height="24"/>
            </g>
          </g>
        </g>
      </g>
      <g id="__1e_NOcu__Selection-Control-/-Checkbox-/-Off-/-Enabled" mask="url(#__1e_NOcu__mask-2)">
        <g transform="translate(78.000000, 95.000000)" id="__1e_NOcu__Icon-/-Toggle-/-Checkbox-Outline-/-Fill">
          <g>
            <mask id="__1e_NOcu__mask-8" fill="white">
              <path d="M19,5 L19,19 L5,19 L5,5 L19,5 Z M19,3 L5,3 C3.9,3 3,3.9 3,5 L3,19 C3,20.1 3.9,21 5,21 L19,21 C20.1,21 21,20.1 21,19 L21,5 C21,3.9 20.1,3 19,3 Z" transform="matrix(1, 0, 0, 1, 0, 0)"/>
            </mask>
            <g id="__1e_NOcu__ic_check_box_outline_blank_24px" fill-rule="nonzero"/>
            <g id="__1e_NOcu__✱-/-Color-/-Icons-/-Black-/-Inactive" mask="url(#__1e_NOcu__mask-8)" fill="#000000" fill-rule="evenodd" opacity="0.54">
              <rect id="__1e_NOcu__Rectangle" x="0" y="0" width="24" height="24"/>
            </g>
          </g>
        </g>
      </g>
      <g id="__1e_NOcu__Selection-Control-/-Checkbox-/-Off-/-Enabled" mask="url(#__1e_NOcu__mask-2)">
        <g transform="translate(78.000000, 129.000000)" id="__1e_NOcu__Icon-/-Toggle-/-Checkbox-Outline-/-Fill">
          <g>
            <mask id="__1e_NOcu__mask-10" fill="white">
              <path d="M19,5 L19,19 L5,19 L5,5 L19,5 Z M19,3 L5,3 C3.9,3 3,3.9 3,5 L3,19 C3,20.1 3.9,21 5,21 L19,21 C20.1,21 21,20.1 21,19 L21,5 C21,3.9 20.1,3 19,3 Z" transform="matrix(1, 0, 0, 1, 0, 0)"/>
            </mask>
            <g id="__1e_NOcu__ic_check_box_outline_blank_24px" fill-rule="nonzero"/>
            <g id="__1e_NOcu__✱-/-Color-/-Icons-/-Black-/-Inactive" mask="url(#__1e_NOcu__mask-10)" fill="#000000" fill-rule="evenodd" opacity="0.54">
              <rect id="__1e_NOcu__Rectangle" x="0" y="0" width="24" height="24"/>
            </g>
          </g>
        </g>
      </g>
    </g>
  </g>
</svg>