<?xml version="1.0" encoding="utf-8"?>
<svg viewBox="0 0 180 180" xmlns="http://www.w3.org/2000/svg">
  <defs>
    <filter x="-8.3%" y="-6.9%" width="116.6%" height="118.7%" filterUnits="objectBoundingBox" id="__HcfKmG2__filter-7">
      <feOffset dx="0" dy="0" in="SourceAlpha" result="shadowOffsetOuter1"/>
      <feGaussianBlur stdDeviation="1.5" in="shadowOffsetOuter1" result="shadowBlurOuter1"/>
      <feColorMatrix values="0 0 0 0 0 0 0 0 0 0 0 0 0 0 0 0 0 0 0.2 0" type="matrix" in="shadowBlurOuter1" result="shadowMatrixOuter1"/>
      <feOffset dx="0" dy="1" in="SourceAlpha" result="shadowOffsetOuter2"/>
      <feGaussianBlur stdDeviation="1" in="shadowOffsetOuter2" result="shadowBlurOuter2"/>
      <feColorMatrix values="0 0 0 0 0 0 0 0 0 0 0 0 0 0 0 0 0 0 0.12 0" type="matrix" in="shadowBlurOuter2" result="shadowMatrixOuter2"/>
      <feOffset dx="0" dy="1" in="SourceAlpha" result="shadowOffsetOuter3"/>
      <feGaussianBlur stdDeviation="0.5" in="shadowOffsetOuter3" result="shadowBlurOuter3"/>
      <feColorMatrix values="0 0 0 0 0 0 0 0 0 0 0 0 0 0 0 0 0 0 0.14 0" type="matrix" in="shadowBlurOuter3" result="shadowMatrixOuter3"/>
      <feMerge>
        <feMergeNode in="shadowMatrixOuter1"/>
        <feMergeNode in="shadowMatrixOuter2"/>
        <feMergeNode in="shadowMatrixOuter3"/>
      </feMerge>
    </filter>
  </defs>
  <g id="__HcfKmG2__dialog_180px" stroke="none" stroke-width="1" fill="none" fill-rule="evenodd">
    <g id="__HcfKmG2__Group">
      <mask id="__HcfKmG2__mask-2" fill="white">
        <rect x="0" y="0" width="180" height="180" transform="matrix(1, 0, 0, 1, 0, 0)"/>
      </mask>
      <rect id="__HcfKmG2__Mask" x="0" y="0" width="180" height="180" transform="matrix(1, 0, 0, 1, 0, 0)" fill="#FAFAFA"/>
      <g mask="url(#__HcfKmG2__mask-2)">
        <g id="__HcfKmG2__Image-Treatments-/-Tonal-/-Black" opacity="0.5">
          <rect id="__HcfKmG2__Surface" x="0" y="0" width="180" height="180" transform="matrix(1, 0, 0, 1, 0, 0)" fill="#000000" fill-rule="evenodd" opacity="0.32"/>
        </g>
        <g id="__HcfKmG2__Dialogs-/-Simple-/-with-Header" transform="translate(45.000000, 46.000000)">
          <mask id="__HcfKmG2__mask-6" fill="white">
            <path d="M2.58585859,0 L87.9191919,0 C89.3473222,-2.62343273e-16 90.5050505,1.15772832 90.5050505,2.58585859 L90.5050505,77.5757576 C90.5050505,79.0038878 89.3473222,80.1616162 87.9191919,80.1616162 L2.58585859,80.1616162 C1.15772832,80.1616162 1.95125235e-15,79.0038878 1.77635684e-15,77.5757576 L0,2.58585859 C-1.74895515e-16,1.15772832 1.15772832,-5.06672725e-15 2.58585859,-5.32907052e-15 Z" transform="matrix(1, 0, 0, 1, 0, 0)"/>
          </mask>
          <g id="__HcfKmG2__Surface">
            <path d="M2.58585859,0 L87.9191919,0 C89.3473222,-2.62343273e-16 90.5050505,1.15772832 90.5050505,2.58585859 L90.5050505,77.5757576 C90.5050505,79.0038878 89.3473222,80.1616162 87.9191919,80.1616162 L2.58585859,80.1616162 C1.15772832,80.1616162 1.95125235e-15,79.0038878 1.77635684e-15,77.5757576 L0,2.58585859 C-1.74895515e-16,1.15772832 1.15772832,-5.06672725e-15 2.58585859,-5.32907052e-15 Z" transform="matrix(1, 0, 0, 1, 0, 0)" fill="black" fill-opacity="1" filter="url(#__HcfKmG2__filter-7)"/>
            <path d="M2.58585859,0 L87.9191919,0 C89.3473222,-2.62343273e-16 90.5050505,1.15772832 90.5050505,2.58585859 L90.5050505,77.5757576 C90.5050505,79.0038878 89.3473222,80.1616162 87.9191919,80.1616162 L2.58585859,80.1616162 C1.15772832,80.1616162 1.95125235e-15,79.0038878 1.77635684e-15,77.5757576 L0,2.58585859 C-1.74895515e-16,1.15772832 1.15772832,-5.06672725e-15 2.58585859,-5.32907052e-15 Z" transform="matrix(1, 0, 0, 1, 0, 0)" fill="#FAFAFA" fill-rule="evenodd"/>
          </g>
          <g id="__HcfKmG2__✱-/-Color-/-Background-/-Light" mask="url(#__HcfKmG2__mask-6)" fill="#FFFFFF" fill-rule="evenodd">
            <rect id="__HcfKmG2__Rectangle-13" x="0" y="0" width="91.9191919" height="80.8080808"/>
          </g>
          <g id="__HcfKmG2__Text-/-Subtitle-1-/-Background-/-Left" opacity="0.54" mask="url(#__HcfKmG2__mask-6)" fill-opacity="0.87" font-family="Roboto-Regular, Roboto" font-size="5.17171717" font-weight="normal" letter-spacing="0.0484848504" line-spacing="7.75757576">
            <g transform="translate(7.757576, 19.070707)" id="__HcfKmG2__Subtitle-1" opacity="0.87">
              <path d="M 0.914 4.604 L 2.657 4.604 L 2.657 5 L 0.427 5 L 0.427 1.323 L 0.914 1.323 Z" style="fill: rgb(0, 0, 0); white-space: pre;"/>
              <path d="M 3.042 3.609 Q 3.042 3.207 3.2 2.886 Q 3.358 2.566 3.64 2.391 Q 3.921 2.217 4.282 2.217 Q 4.84 2.217 5.185 2.604 Q 5.53 2.99 5.53 3.631 L 5.53 3.664 Q 5.53 4.063 5.377 4.38 Q 5.224 4.697 4.94 4.874 Q 4.656 5.051 4.287 5.051 Q 3.732 5.051 3.387 4.664 Q 3.042 4.278 3.042 3.641 Z M 3.512 3.664 Q 3.512 4.119 3.723 4.394 Q 3.934 4.669 4.287 4.669 Q 4.643 4.669 4.853 4.39 Q 5.063 4.111 5.063 3.609 Q 5.063 3.159 4.849 2.88 Q 4.636 2.601 4.282 2.601 Q 3.936 2.601 3.724 2.876 Q 3.512 3.152 3.512 3.664 Z" style="fill: rgb(0, 0, 0); white-space: pre;"/>
              <path d="M 7.471 2.687 Q 7.365 2.669 7.241 2.669 Q 6.782 2.669 6.618 3.061 L 6.618 5 L 6.15 5 L 6.15 2.268 L 6.605 2.268 L 6.613 2.583 Q 6.842 2.217 7.264 2.217 Q 7.4 2.217 7.471 2.253 Z" style="fill: rgb(0, 0, 0); white-space: pre;"/>
              <path d="M 9.034 5.051 Q 8.479 5.051 8.13 4.686 Q 7.782 4.321 7.782 3.71 L 7.782 3.624 Q 7.782 3.217 7.937 2.898 Q 8.092 2.578 8.371 2.398 Q 8.65 2.217 8.976 2.217 Q 9.509 2.217 9.804 2.568 Q 10.1 2.919 10.1 3.573 L 10.1 3.768 L 8.249 3.768 Q 8.259 4.172 8.485 4.42 Q 8.711 4.669 9.06 4.669 Q 9.307 4.669 9.479 4.568 Q 9.65 4.467 9.779 4.301 L 10.065 4.523 Q 9.721 5.051 9.034 5.051 Z M 8.976 2.601 Q 8.693 2.601 8.501 2.807 Q 8.31 3.013 8.264 3.384 L 9.633 3.384 L 9.633 3.348 Q 9.613 2.992 9.441 2.797 Q 9.269 2.601 8.976 2.601 Z" style="fill: rgb(0, 0, 0); white-space: pre;"/>
              <path d="M 11.121 2.268 L 11.134 2.571 Q 11.434 2.217 11.944 2.217 Q 12.518 2.217 12.725 2.657 Q 12.861 2.46 13.079 2.338 Q 13.298 2.217 13.596 2.217 Q 14.495 2.217 14.51 3.169 L 14.51 5 L 14.043 5 L 14.043 3.197 Q 14.043 2.904 13.909 2.759 Q 13.775 2.614 13.459 2.614 Q 13.199 2.614 13.028 2.769 Q 12.856 2.924 12.828 3.187 L 12.828 5 L 12.358 5 L 12.358 3.21 Q 12.358 2.614 11.775 2.614 Q 11.315 2.614 11.146 3.005 L 11.146 5 L 10.679 5 L 10.679 2.268 Z" style="fill: rgb(0, 0, 0); white-space: pre;"/>
              <path d="M 17.08 5 L 16.613 5 L 16.613 2.268 L 17.08 2.268 Z M 16.575 1.543 Q 16.575 1.429 16.644 1.351 Q 16.714 1.273 16.85 1.273 Q 16.986 1.273 17.057 1.351 Q 17.128 1.429 17.128 1.543 Q 17.128 1.657 17.057 1.732 Q 16.986 1.808 16.85 1.808 Q 16.714 1.808 16.644 1.732 Q 16.575 1.657 16.575 1.543 Z" style="fill: rgb(0, 0, 0); white-space: pre;"/>
              <path d="M 20.177 3.664 Q 20.177 4.288 19.892 4.669 Q 19.607 5.051 19.119 5.051 Q 18.622 5.051 18.336 4.735 L 18.336 6.051 L 17.869 6.051 L 17.869 2.268 L 18.296 2.268 L 18.319 2.571 Q 18.604 2.217 19.112 2.217 Q 19.604 2.217 19.891 2.588 Q 20.177 2.96 20.177 3.621 Z M 19.71 3.611 Q 19.71 3.149 19.513 2.881 Q 19.316 2.614 18.973 2.614 Q 18.548 2.614 18.336 2.99 L 18.336 4.295 Q 18.546 4.669 18.978 4.669 Q 19.314 4.669 19.512 4.403 Q 19.71 4.136 19.71 3.611 Z" style="fill: rgb(0, 0, 0); white-space: pre;"/>
              <path d="M 22.413 4.275 Q 22.413 4.086 22.271 3.981 Q 22.128 3.876 21.773 3.801 Q 21.418 3.725 21.21 3.619 Q 21.002 3.513 20.902 3.366 Q 20.802 3.22 20.802 3.018 Q 20.802 2.682 21.086 2.449 Q 21.37 2.217 21.812 2.217 Q 22.277 2.217 22.566 2.457 Q 22.855 2.697 22.855 3.071 L 22.385 3.071 Q 22.385 2.879 22.223 2.74 Q 22.06 2.601 21.812 2.601 Q 21.557 2.601 21.413 2.712 Q 21.269 2.823 21.269 3.003 Q 21.269 3.172 21.403 3.258 Q 21.537 3.343 21.887 3.422 Q 22.236 3.5 22.454 3.609 Q 22.671 3.717 22.776 3.87 Q 22.88 4.023 22.88 4.242 Q 22.88 4.609 22.587 4.83 Q 22.295 5.051 21.827 5.051 Q 21.499 5.051 21.247 4.934 Q 20.994 4.818 20.851 4.61 Q 20.709 4.402 20.709 4.159 L 21.176 4.159 Q 21.188 4.394 21.364 4.532 Q 21.539 4.669 21.827 4.669 Q 22.092 4.669 22.253 4.562 Q 22.413 4.455 22.413 4.275 Z" style="fill: rgb(0, 0, 0); white-space: pre;"/>
              <path d="M 25.212 4.73 Q 24.94 5.051 24.412 5.051 Q 23.975 5.051 23.746 4.797 Q 23.518 4.543 23.515 4.045 L 23.515 2.268 L 23.982 2.268 L 23.982 4.033 Q 23.982 4.654 24.488 4.654 Q 25.023 4.654 25.2 4.255 L 25.2 2.268 L 25.667 2.268 L 25.667 5 L 25.222 5 Z" style="fill: rgb(0, 0, 0); white-space: pre;"/>
              <path d="M 26.855 2.268 L 26.868 2.571 Q 27.169 2.217 27.679 2.217 Q 28.252 2.217 28.459 2.657 Q 28.595 2.46 28.814 2.338 Q 29.032 2.217 29.33 2.217 Q 30.229 2.217 30.244 3.169 L 30.244 5 L 29.777 5 L 29.777 3.197 Q 29.777 2.904 29.643 2.759 Q 29.509 2.614 29.194 2.614 Q 28.934 2.614 28.762 2.769 Q 28.59 2.924 28.563 3.187 L 28.563 5 L 28.093 5 L 28.093 3.21 Q 28.093 2.614 27.509 2.614 Q 27.05 2.614 26.881 3.005 L 26.881 5 L 26.414 5 L 26.414 2.268 Z" style="fill: rgb(0, 0, 0); white-space: pre;"/>
              <path d="M 32.193 3.611 Q 32.193 2.982 32.491 2.6 Q 32.789 2.217 33.271 2.217 Q 33.751 2.217 34.031 2.545 L 34.031 1.121 L 34.499 1.121 L 34.499 5 L 34.069 5 L 34.047 4.707 Q 33.766 5.051 33.266 5.051 Q 32.792 5.051 32.492 4.662 Q 32.193 4.273 32.193 3.646 Z M 32.66 3.664 Q 32.66 4.129 32.852 4.391 Q 33.044 4.654 33.382 4.654 Q 33.827 4.654 34.031 4.255 L 34.031 3 Q 33.822 2.614 33.387 2.614 Q 33.044 2.614 32.852 2.879 Q 32.66 3.144 32.66 3.664 Z" style="fill: rgb(0, 0, 0); white-space: pre;"/>
              <path d="M 35.136 3.609 Q 35.136 3.207 35.294 2.886 Q 35.452 2.566 35.733 2.391 Q 36.015 2.217 36.376 2.217 Q 36.934 2.217 37.279 2.604 Q 37.623 2.99 37.623 3.631 L 37.623 3.664 Q 37.623 4.063 37.471 4.38 Q 37.318 4.697 37.034 4.874 Q 36.75 5.051 36.381 5.051 Q 35.825 5.051 35.481 4.664 Q 35.136 4.278 35.136 3.641 Z M 35.606 3.664 Q 35.606 4.119 35.817 4.394 Q 36.027 4.669 36.381 4.669 Q 36.737 4.669 36.947 4.39 Q 37.156 4.111 37.156 3.609 Q 37.156 3.159 36.943 2.88 Q 36.729 2.601 36.376 2.601 Q 36.03 2.601 35.818 2.876 Q 35.606 3.152 35.606 3.664 Z" style="fill: rgb(0, 0, 0); white-space: pre;"/>
              <path d="M 38.767 5 L 38.3 5 L 38.3 1.121 L 38.767 1.121 Z" style="fill: rgb(0, 0, 0); white-space: pre;"/>
              <path d="M 39.433 3.609 Q 39.433 3.207 39.591 2.886 Q 39.749 2.566 40.03 2.391 Q 40.312 2.217 40.673 2.217 Q 41.231 2.217 41.576 2.604 Q 41.92 2.99 41.92 3.631 L 41.92 3.664 Q 41.92 4.063 41.768 4.38 Q 41.615 4.697 41.331 4.874 Q 41.047 5.051 40.678 5.051 Q 40.122 5.051 39.778 4.664 Q 39.433 4.278 39.433 3.641 Z M 39.903 3.664 Q 39.903 4.119 40.113 4.394 Q 40.324 4.669 40.678 4.669 Q 41.034 4.669 41.244 4.39 Q 41.453 4.111 41.453 3.609 Q 41.453 3.159 41.24 2.88 Q 41.026 2.601 40.673 2.601 Q 40.327 2.601 40.115 2.876 Q 39.903 3.152 39.903 3.664 Z" style="fill: rgb(0, 0, 0); white-space: pre;"/>
              <path d="M 43.862 2.687 Q 43.756 2.669 43.632 2.669 Q 43.172 2.669 43.008 3.061 L 43.008 5 L 42.541 5 L 42.541 2.268 L 42.996 2.268 L 43.003 2.583 Q 43.233 2.217 43.655 2.217 Q 43.791 2.217 43.862 2.253 Z" style="fill: rgb(0, 0, 0); white-space: pre;"/>
              <path d="M 47.257 4.275 Q 47.257 4.086 47.114 3.981 Q 46.972 3.876 46.617 3.801 Q 46.262 3.725 46.054 3.619 Q 45.845 3.513 45.746 3.366 Q 45.646 3.22 45.646 3.018 Q 45.646 2.682 45.93 2.449 Q 46.214 2.217 46.656 2.217 Q 47.121 2.217 47.41 2.457 Q 47.699 2.697 47.699 3.071 L 47.229 3.071 Q 47.229 2.879 47.066 2.74 Q 46.903 2.601 46.656 2.601 Q 46.401 2.601 46.257 2.712 Q 46.113 2.823 46.113 3.003 Q 46.113 3.172 46.247 3.258 Q 46.381 3.343 46.73 3.422 Q 47.08 3.5 47.297 3.609 Q 47.515 3.717 47.619 3.87 Q 47.724 4.023 47.724 4.242 Q 47.724 4.609 47.431 4.83 Q 47.138 5.051 46.671 5.051 Q 46.343 5.051 46.09 4.934 Q 45.838 4.818 45.695 4.61 Q 45.552 4.402 45.552 4.159 L 46.02 4.159 Q 46.032 4.394 46.208 4.532 Q 46.383 4.669 46.671 4.669 Q 46.936 4.669 47.097 4.562 Q 47.257 4.455 47.257 4.275 Z" style="fill: rgb(0, 0, 0); white-space: pre;"/>
              <path d="M 48.877 5 L 48.41 5 L 48.41 2.268 L 48.877 2.268 Z M 48.372 1.543 Q 48.372 1.429 48.441 1.351 Q 48.511 1.273 48.647 1.273 Q 48.783 1.273 48.854 1.351 Q 48.925 1.429 48.925 1.543 Q 48.925 1.657 48.854 1.732 Q 48.783 1.808 48.647 1.808 Q 48.511 1.808 48.441 1.732 Q 48.372 1.657 48.372 1.543 Z" style="fill: rgb(0, 0, 0); white-space: pre;"/>
              <path d="M 50.3 1.606 L 50.3 2.268 L 50.81 2.268 L 50.81 2.629 L 50.3 2.629 L 50.3 4.323 Q 50.3 4.487 50.368 4.569 Q 50.436 4.652 50.6 4.652 Q 50.681 4.652 50.823 4.621 L 50.823 5 Q 50.638 5.051 50.464 5.051 Q 50.151 5.051 49.992 4.861 Q 49.833 4.672 49.833 4.323 L 49.833 2.629 L 49.335 2.629 L 49.335 2.268 L 49.833 2.268 L 49.833 1.606 Z" style="fill: rgb(0, 0, 0); white-space: pre;"/>
              <path d="M 54.415 5 Q 54.375 4.919 54.35 4.712 Q 54.024 5.051 53.572 5.051 Q 53.168 5.051 52.909 4.822 Q 52.65 4.593 52.65 4.242 Q 52.65 3.816 52.975 3.58 Q 53.299 3.343 53.888 3.343 L 54.342 3.343 L 54.342 3.129 Q 54.342 2.884 54.196 2.739 Q 54.049 2.593 53.764 2.593 Q 53.514 2.593 53.345 2.72 Q 53.176 2.846 53.176 3.025 L 52.706 3.025 Q 52.706 2.821 52.851 2.63 Q 52.996 2.439 53.245 2.328 Q 53.494 2.217 53.792 2.217 Q 54.264 2.217 54.532 2.453 Q 54.799 2.689 54.809 3.104 L 54.809 4.361 Q 54.809 4.737 54.905 4.96 L 54.905 5 Z M 53.64 4.644 Q 53.86 4.644 54.057 4.53 Q 54.254 4.417 54.342 4.235 L 54.342 3.674 L 53.976 3.674 Q 53.117 3.674 53.117 4.177 Q 53.117 4.396 53.264 4.52 Q 53.41 4.644 53.64 4.644 Z" style="fill: rgb(0, 0, 0); white-space: pre;"/>
              <path d="M 56.012 2.268 L 56.024 2.571 Q 56.325 2.217 56.835 2.217 Q 57.408 2.217 57.615 2.657 Q 57.752 2.46 57.97 2.338 Q 58.188 2.217 58.486 2.217 Q 59.385 2.217 59.401 3.169 L 59.401 5 L 58.933 5 L 58.933 3.197 Q 58.933 2.904 58.8 2.759 Q 58.666 2.614 58.35 2.614 Q 58.09 2.614 57.918 2.769 Q 57.747 2.924 57.719 3.187 L 57.719 5 L 57.249 5 L 57.249 3.21 Q 57.249 2.614 56.666 2.614 Q 56.206 2.614 56.037 3.005 L 56.037 5 L 55.57 5 L 55.57 2.268 Z" style="fill: rgb(0, 0, 0); white-space: pre;"/>
              <path d="M 61.284 5.051 Q 60.729 5.051 60.38 4.686 Q 60.032 4.321 60.032 3.71 L 60.032 3.624 Q 60.032 3.217 60.187 2.898 Q 60.342 2.578 60.621 2.398 Q 60.9 2.217 61.226 2.217 Q 61.759 2.217 62.054 2.568 Q 62.35 2.919 62.35 3.573 L 62.35 3.768 L 60.499 3.768 Q 60.509 4.172 60.735 4.42 Q 60.961 4.669 61.31 4.669 Q 61.557 4.669 61.729 4.568 Q 61.9 4.467 62.029 4.301 L 62.315 4.523 Q 61.971 5.051 61.284 5.051 Z M 61.226 2.601 Q 60.943 2.601 60.751 2.807 Q 60.56 3.013 60.514 3.384 L 61.883 3.384 L 61.883 3.348 Q 61.863 2.992 61.691 2.797 Q 61.519 2.601 61.226 2.601 Z" style="fill: rgb(0, 0, 0); white-space: pre;"/>
              <path d="M 63.565 1.606 L 63.565 2.268 L 64.076 2.268 L 64.076 2.629 L 63.565 2.629 L 63.565 4.323 Q 63.565 4.487 63.634 4.569 Q 63.702 4.652 63.866 4.652 Q 63.947 4.652 64.088 4.621 L 64.088 5 Q 63.904 5.051 63.73 5.051 Q 63.417 5.051 63.257 4.861 Q 63.098 4.672 63.098 4.323 L 63.098 2.629 L 62.601 2.629 L 62.601 2.268 L 63.098 2.268 L 63.098 1.606 Z" style="fill: rgb(0, 0, 0); white-space: pre;"/>
              <path d="M 64.651 5.732 L 64.386 5.551 Q 64.623 5.22 64.633 4.869 L 64.633 4.447 L 65.09 4.447 L 65.09 4.813 Q 65.09 5.068 64.965 5.323 Q 64.84 5.578 64.651 5.732 Z" style="fill: rgb(0, 0, 0); white-space: pre;"/>
              <path d="M 1.449 12.427 Q 1.699 12.427 1.886 12.275 Q 2.073 12.124 2.093 11.896 L 2.535 11.896 Q 2.523 12.131 2.374 12.343 Q 2.225 12.556 1.976 12.682 Q 1.727 12.808 1.449 12.808 Q 0.891 12.808 0.562 12.436 Q 0.232 12.063 0.232 11.417 L 0.232 11.338 Q 0.232 10.939 0.379 10.629 Q 0.525 10.318 0.799 10.146 Q 1.073 9.975 1.447 9.975 Q 1.907 9.975 2.211 10.25 Q 2.515 10.525 2.535 10.965 L 2.093 10.965 Q 2.073 10.7 1.893 10.529 Q 1.712 10.359 1.447 10.359 Q 1.091 10.359 0.895 10.615 Q 0.699 10.871 0.699 11.356 L 0.699 11.444 Q 0.699 11.917 0.894 12.172 Q 1.088 12.427 1.449 12.427 Z" style="fill: rgb(0, 0, 0); white-space: pre;"/>
              <path d="M 2.964 11.366 Q 2.964 10.965 3.122 10.644 Q 3.28 10.323 3.561 10.149 Q 3.843 9.975 4.204 9.975 Q 4.762 9.975 5.107 10.361 Q 5.452 10.747 5.452 11.389 L 5.452 11.422 Q 5.452 11.821 5.299 12.138 Q 5.146 12.455 4.862 12.631 Q 4.578 12.808 4.209 12.808 Q 3.654 12.808 3.309 12.422 Q 2.964 12.035 2.964 11.399 Z M 3.434 11.422 Q 3.434 11.876 3.645 12.152 Q 3.856 12.427 4.209 12.427 Q 4.565 12.427 4.775 12.148 Q 4.984 11.869 4.984 11.366 Q 4.984 10.917 4.771 10.638 Q 4.558 10.359 4.204 10.359 Q 3.858 10.359 3.646 10.634 Q 3.434 10.909 3.434 11.422 Z" style="fill: rgb(0, 0, 0); white-space: pre;"/>
              <path d="M 6.53 10.025 L 6.545 10.369 Q 6.858 9.975 7.363 9.975 Q 8.229 9.975 8.237 10.952 L 8.237 12.758 L 7.77 12.758 L 7.77 10.95 Q 7.767 10.654 7.635 10.513 Q 7.502 10.371 7.222 10.371 Q 6.994 10.371 6.823 10.492 Q 6.651 10.614 6.555 10.811 L 6.555 12.758 L 6.088 12.758 L 6.088 10.025 Z" style="fill: rgb(0, 0, 0); white-space: pre;"/>
              <path d="M 10.569 12.033 Q 10.569 11.843 10.427 11.739 Q 10.284 11.634 9.929 11.558 Q 9.574 11.482 9.366 11.376 Q 9.158 11.27 9.058 11.124 Q 8.958 10.977 8.958 10.775 Q 8.958 10.439 9.242 10.207 Q 9.527 9.975 9.968 9.975 Q 10.433 9.975 10.722 10.215 Q 11.011 10.455 11.011 10.828 L 10.542 10.828 Q 10.542 10.636 10.379 10.497 Q 10.216 10.359 9.968 10.359 Q 9.713 10.359 9.569 10.47 Q 9.426 10.581 9.426 10.76 Q 9.426 10.929 9.559 11.015 Q 9.693 11.101 10.043 11.179 Q 10.393 11.258 10.61 11.366 Q 10.827 11.475 10.932 11.628 Q 11.037 11.78 11.037 12 Q 11.037 12.366 10.744 12.587 Q 10.451 12.808 9.984 12.808 Q 9.655 12.808 9.403 12.692 Q 9.15 12.576 9.008 12.367 Q 8.865 12.159 8.865 11.917 L 9.332 11.917 Q 9.345 12.152 9.52 12.289 Q 9.696 12.427 9.984 12.427 Q 10.249 12.427 10.409 12.319 Q 10.569 12.212 10.569 12.033 Z" style="fill: rgb(0, 0, 0); white-space: pre;"/>
              <path d="M 12.815 12.808 Q 12.26 12.808 11.911 12.443 Q 11.563 12.078 11.563 11.467 L 11.563 11.381 Q 11.563 10.975 11.718 10.655 Q 11.874 10.336 12.153 10.155 Q 12.432 9.975 12.757 9.975 Q 13.29 9.975 13.586 10.326 Q 13.881 10.677 13.881 11.331 L 13.881 11.525 L 12.03 11.525 Q 12.04 11.929 12.266 12.178 Q 12.492 12.427 12.841 12.427 Q 13.088 12.427 13.26 12.326 Q 13.432 12.225 13.56 12.058 L 13.846 12.28 Q 13.502 12.808 12.815 12.808 Z M 12.757 10.359 Q 12.475 10.359 12.283 10.564 Q 12.091 10.77 12.045 11.141 L 13.414 11.141 L 13.414 11.106 Q 13.394 10.75 13.222 10.554 Q 13.05 10.359 12.757 10.359 Z" style="fill: rgb(0, 0, 0); white-space: pre;"/>
              <path d="M 15.559 12.427 Q 15.809 12.427 15.996 12.275 Q 16.183 12.124 16.203 11.896 L 16.645 11.896 Q 16.632 12.131 16.483 12.343 Q 16.334 12.556 16.085 12.682 Q 15.837 12.808 15.559 12.808 Q 15.001 12.808 14.671 12.436 Q 14.342 12.063 14.342 11.417 L 14.342 11.338 Q 14.342 10.939 14.488 10.629 Q 14.635 10.318 14.909 10.146 Q 15.183 9.975 15.556 9.975 Q 16.016 9.975 16.32 10.25 Q 16.625 10.525 16.645 10.965 L 16.203 10.965 Q 16.183 10.7 16.002 10.529 Q 15.821 10.359 15.556 10.359 Q 15.2 10.359 15.005 10.615 Q 14.809 10.871 14.809 11.356 L 14.809 11.444 Q 14.809 11.917 15.003 12.172 Q 15.198 12.427 15.559 12.427 Z" style="fill: rgb(0, 0, 0); white-space: pre;"/>
              <path d="M 17.847 9.364 L 17.847 10.025 L 18.357 10.025 L 18.357 10.386 L 17.847 10.386 L 17.847 12.081 Q 17.847 12.245 17.915 12.327 Q 17.983 12.409 18.147 12.409 Q 18.228 12.409 18.369 12.379 L 18.369 12.758 Q 18.185 12.808 18.011 12.808 Q 17.698 12.808 17.539 12.619 Q 17.38 12.429 17.38 12.081 L 17.38 10.386 L 16.882 10.386 L 16.882 10.025 L 17.38 10.025 L 17.38 9.364 Z" style="fill: rgb(0, 0, 0); white-space: pre;"/>
              <path d="M 20.081 12.808 Q 19.526 12.808 19.177 12.443 Q 18.829 12.078 18.829 11.467 L 18.829 11.381 Q 18.829 10.975 18.984 10.655 Q 19.139 10.336 19.418 10.155 Q 19.697 9.975 20.023 9.975 Q 20.556 9.975 20.851 10.326 Q 21.147 10.677 21.147 11.331 L 21.147 11.525 L 19.296 11.525 Q 19.306 11.929 19.532 12.178 Q 19.758 12.427 20.106 12.427 Q 20.354 12.427 20.526 12.326 Q 20.697 12.225 20.826 12.058 L 21.111 12.28 Q 20.768 12.808 20.081 12.808 Z M 20.023 10.359 Q 19.74 10.359 19.548 10.564 Q 19.356 10.77 19.311 11.141 L 20.68 11.141 L 20.68 11.106 Q 20.659 10.75 20.488 10.554 Q 20.316 10.359 20.023 10.359 Z" style="fill: rgb(0, 0, 0); white-space: pre;"/>
              <path d="M 22.362 9.364 L 22.362 10.025 L 22.872 10.025 L 22.872 10.386 L 22.362 10.386 L 22.362 12.081 Q 22.362 12.245 22.431 12.327 Q 22.499 12.409 22.663 12.409 Q 22.744 12.409 22.885 12.379 L 22.885 12.758 Q 22.701 12.808 22.527 12.808 Q 22.213 12.808 22.054 12.619 Q 21.895 12.429 21.895 12.081 L 21.895 10.386 L 21.398 10.386 L 21.398 10.025 L 21.895 10.025 L 21.895 9.364 Z" style="fill: rgb(0, 0, 0); white-space: pre;"/>
              <path d="M 25.15 12.487 Q 24.877 12.808 24.349 12.808 Q 23.912 12.808 23.684 12.554 Q 23.455 12.301 23.453 11.803 L 23.453 10.025 L 23.92 10.025 L 23.92 11.79 Q 23.92 12.412 24.425 12.412 Q 24.96 12.412 25.137 12.013 L 25.137 10.025 L 25.604 10.025 L 25.604 12.758 L 25.16 12.758 Z" style="fill: rgb(0, 0, 0); white-space: pre;"/>
              <path d="M 27.674 10.444 Q 27.568 10.427 27.444 10.427 Q 26.985 10.427 26.821 10.818 L 26.821 12.758 L 26.354 12.758 L 26.354 10.025 L 26.808 10.025 L 26.816 10.341 Q 27.045 9.975 27.467 9.975 Q 27.604 9.975 27.674 10.01 Z" style="fill: rgb(0, 0, 0); white-space: pre;"/>
              <path d="M 31.15 12.758 Q 31.109 12.677 31.084 12.47 Q 30.758 12.808 30.306 12.808 Q 29.902 12.808 29.643 12.58 Q 29.385 12.351 29.385 12 Q 29.385 11.573 29.709 11.337 Q 30.034 11.101 30.622 11.101 L 31.077 11.101 L 31.077 10.886 Q 31.077 10.641 30.93 10.496 Q 30.784 10.351 30.498 10.351 Q 30.248 10.351 30.079 10.477 Q 29.91 10.604 29.91 10.783 L 29.44 10.783 Q 29.44 10.578 29.585 10.388 Q 29.731 10.197 29.979 10.086 Q 30.228 9.975 30.526 9.975 Q 30.998 9.975 31.266 10.211 Q 31.534 10.447 31.544 10.861 L 31.544 12.119 Q 31.544 12.495 31.64 12.717 L 31.64 12.758 Z M 30.375 12.402 Q 30.594 12.402 30.791 12.288 Q 30.988 12.174 31.077 11.992 L 31.077 11.432 L 30.71 11.432 Q 29.852 11.432 29.852 11.934 Q 29.852 12.154 29.998 12.278 Q 30.145 12.402 30.375 12.402 Z" style="fill: rgb(0, 0, 0); white-space: pre;"/>
              <path d="M 32.209 11.369 Q 32.209 10.74 32.507 10.357 Q 32.805 9.975 33.287 9.975 Q 33.767 9.975 34.047 10.303 L 34.047 8.879 L 34.514 8.879 L 34.514 12.758 L 34.085 12.758 L 34.062 12.465 Q 33.782 12.808 33.282 12.808 Q 32.807 12.808 32.508 12.419 Q 32.209 12.03 32.209 11.404 Z M 32.676 11.422 Q 32.676 11.886 32.868 12.149 Q 33.06 12.412 33.398 12.412 Q 33.842 12.412 34.047 12.013 L 34.047 10.758 Q 33.837 10.371 33.403 10.371 Q 33.06 10.371 32.868 10.636 Q 32.676 10.902 32.676 11.422 Z" style="fill: rgb(0, 0, 0); white-space: pre;"/>
              <path d="M 35.783 12.758 L 35.316 12.758 L 35.316 10.025 L 35.783 10.025 Z M 35.278 9.301 Q 35.278 9.187 35.347 9.109 Q 35.417 9.03 35.553 9.03 Q 35.69 9.03 35.76 9.109 Q 35.831 9.187 35.831 9.301 Q 35.831 9.414 35.76 9.49 Q 35.69 9.566 35.553 9.566 Q 35.417 9.566 35.347 9.49 Q 35.278 9.414 35.278 9.301 Z" style="fill: rgb(0, 0, 0); white-space: pre;"/>
              <path d="M 38.88 11.422 Q 38.88 12.045 38.595 12.427 Q 38.31 12.808 37.822 12.808 Q 37.325 12.808 37.039 12.492 L 37.039 13.808 L 36.572 13.808 L 36.572 10.025 L 36.999 10.025 L 37.022 10.328 Q 37.307 9.975 37.815 9.975 Q 38.307 9.975 38.594 10.346 Q 38.88 10.717 38.88 11.379 Z M 38.413 11.369 Q 38.413 10.907 38.216 10.639 Q 38.019 10.371 37.676 10.371 Q 37.252 10.371 37.039 10.747 L 37.039 12.053 Q 37.249 12.427 37.681 12.427 Q 38.017 12.427 38.215 12.16 Q 38.413 11.894 38.413 11.369 Z" style="fill: rgb(0, 0, 0); white-space: pre;"/>
              <path d="M 40.017 12.758 L 39.55 12.758 L 39.55 10.025 L 40.017 10.025 Z M 39.512 9.301 Q 39.512 9.187 39.582 9.109 Q 39.651 9.03 39.788 9.03 Q 39.924 9.03 39.995 9.109 Q 40.065 9.187 40.065 9.301 Q 40.065 9.414 39.995 9.49 Q 39.924 9.566 39.788 9.566 Q 39.651 9.566 39.582 9.49 Q 39.512 9.414 39.512 9.301 Z" style="fill: rgb(0, 0, 0); white-space: pre;"/>
              <path d="M 42.413 12.033 Q 42.413 11.843 42.271 11.739 Q 42.128 11.634 41.773 11.558 Q 41.418 11.482 41.21 11.376 Q 41.002 11.27 40.902 11.124 Q 40.802 10.977 40.802 10.775 Q 40.802 10.439 41.086 10.207 Q 41.37 9.975 41.812 9.975 Q 42.277 9.975 42.566 10.215 Q 42.855 10.455 42.855 10.828 L 42.385 10.828 Q 42.385 10.636 42.223 10.497 Q 42.06 10.359 41.812 10.359 Q 41.557 10.359 41.413 10.47 Q 41.269 10.581 41.269 10.76 Q 41.269 10.929 41.403 11.015 Q 41.537 11.101 41.887 11.179 Q 42.236 11.258 42.454 11.366 Q 42.671 11.475 42.776 11.628 Q 42.88 11.78 42.88 12 Q 42.88 12.366 42.587 12.587 Q 42.295 12.808 41.827 12.808 Q 41.499 12.808 41.247 12.692 Q 40.994 12.576 40.851 12.367 Q 40.709 12.159 40.709 11.917 L 41.176 11.917 Q 41.188 12.152 41.364 12.289 Q 41.539 12.427 41.827 12.427 Q 42.092 12.427 42.253 12.319 Q 42.413 12.212 42.413 12.033 Z" style="fill: rgb(0, 0, 0); white-space: pre;"/>
              <path d="M 44.033 12.758 L 43.566 12.758 L 43.566 10.025 L 44.033 10.025 Z M 43.528 9.301 Q 43.528 9.187 43.597 9.109 Q 43.667 9.03 43.803 9.03 Q 43.94 9.03 44.01 9.109 Q 44.081 9.187 44.081 9.301 Q 44.081 9.414 44.01 9.49 Q 43.94 9.566 43.803 9.566 Q 43.667 9.566 43.597 9.49 Q 43.528 9.414 43.528 9.301 Z" style="fill: rgb(0, 0, 0); white-space: pre;"/>
              <path d="M 45.918 12.427 Q 46.168 12.427 46.355 12.275 Q 46.542 12.124 46.562 11.896 L 47.004 11.896 Q 46.991 12.131 46.842 12.343 Q 46.693 12.556 46.445 12.682 Q 46.196 12.808 45.918 12.808 Q 45.36 12.808 45.031 12.436 Q 44.701 12.063 44.701 11.417 L 44.701 11.338 Q 44.701 10.939 44.848 10.629 Q 44.994 10.318 45.268 10.146 Q 45.542 9.975 45.916 9.975 Q 46.375 9.975 46.68 10.25 Q 46.984 10.525 47.004 10.965 L 46.562 10.965 Q 46.542 10.7 46.361 10.529 Q 46.181 10.359 45.916 10.359 Q 45.56 10.359 45.364 10.615 Q 45.168 10.871 45.168 11.356 L 45.168 11.444 Q 45.168 11.917 45.363 12.172 Q 45.557 12.427 45.918 12.427 Z" style="fill: rgb(0, 0, 0); white-space: pre;"/>
              <path d="M 48.08 12.758 L 47.613 12.758 L 47.613 10.025 L 48.08 10.025 Z M 47.575 9.301 Q 47.575 9.187 47.644 9.109 Q 47.714 9.03 47.85 9.03 Q 47.986 9.03 48.057 9.109 Q 48.128 9.187 48.128 9.301 Q 48.128 9.414 48.057 9.49 Q 47.986 9.566 47.85 9.566 Q 47.714 9.566 47.644 9.49 Q 47.575 9.414 47.575 9.301 Z" style="fill: rgb(0, 0, 0); white-space: pre;"/>
              <path d="M 49.311 10.025 L 49.326 10.369 Q 49.639 9.975 50.144 9.975 Q 51.011 9.975 51.018 10.952 L 51.018 12.758 L 50.551 12.758 L 50.551 10.95 Q 50.548 10.654 50.416 10.513 Q 50.283 10.371 50.003 10.371 Q 49.776 10.371 49.604 10.492 Q 49.432 10.614 49.336 10.811 L 49.336 12.758 L 48.869 12.758 L 48.869 10.025 Z" style="fill: rgb(0, 0, 0); white-space: pre;"/>
              <path d="M 51.649 11.369 Q 51.649 10.73 51.944 10.352 Q 52.24 9.975 52.727 9.975 Q 53.227 9.975 53.507 10.328 L 53.53 10.025 L 53.957 10.025 L 53.957 12.692 Q 53.957 13.222 53.642 13.528 Q 53.328 13.833 52.798 13.833 Q 52.502 13.833 52.219 13.707 Q 51.937 13.581 51.788 13.361 L 52.03 13.081 Q 52.33 13.452 52.765 13.452 Q 53.106 13.452 53.296 13.26 Q 53.487 13.068 53.487 12.72 L 53.487 12.485 Q 53.207 12.808 52.722 12.808 Q 52.242 12.808 51.945 12.422 Q 51.649 12.035 51.649 11.369 Z M 52.118 11.422 Q 52.118 11.884 52.308 12.148 Q 52.497 12.412 52.838 12.412 Q 53.28 12.412 53.487 12.01 L 53.487 10.763 Q 53.272 10.371 52.843 10.371 Q 52.502 10.371 52.31 10.636 Q 52.118 10.902 52.118 11.422 Z" style="fill: rgb(0, 0, 0); white-space: pre;"/>
              <path d="M 57.159 12.808 Q 56.604 12.808 56.255 12.443 Q 55.907 12.078 55.907 11.467 L 55.907 11.381 Q 55.907 10.975 56.062 10.655 Q 56.217 10.336 56.496 10.155 Q 56.775 9.975 57.101 9.975 Q 57.634 9.975 57.929 10.326 Q 58.225 10.677 58.225 11.331 L 58.225 11.525 L 56.374 11.525 Q 56.384 11.929 56.61 12.178 Q 56.836 12.427 57.185 12.427 Q 57.432 12.427 57.604 12.326 Q 57.775 12.225 57.904 12.058 L 58.19 12.28 Q 57.846 12.808 57.159 12.808 Z M 57.101 10.359 Q 56.818 10.359 56.626 10.564 Q 56.435 10.77 56.389 11.141 L 57.758 11.141 L 57.758 11.106 Q 57.738 10.75 57.566 10.554 Q 57.394 10.359 57.101 10.359 Z" style="fill: rgb(0, 0, 0); white-space: pre;"/>
              <path d="M 59.314 12.758 L 58.847 12.758 L 58.847 8.879 L 59.314 8.879 Z" style="fill: rgb(0, 0, 0); white-space: pre;"/>
              <path d="M 60.611 12.758 L 60.144 12.758 L 60.144 10.025 L 60.611 10.025 Z M 60.106 9.301 Q 60.106 9.187 60.176 9.109 Q 60.245 9.03 60.381 9.03 Q 60.518 9.03 60.588 9.109 Q 60.659 9.187 60.659 9.301 Q 60.659 9.414 60.588 9.49 Q 60.518 9.566 60.381 9.566 Q 60.245 9.566 60.176 9.49 Q 60.106 9.414 60.106 9.301 Z" style="fill: rgb(0, 0, 0); white-space: pre;"/>
              <path d="M 62.05 9.364 L 62.05 10.025 L 62.56 10.025 L 62.56 10.386 L 62.05 10.386 L 62.05 12.081 Q 62.05 12.245 62.118 12.327 Q 62.186 12.409 62.35 12.409 Q 62.431 12.409 62.573 12.379 L 62.573 12.758 Q 62.388 12.808 62.214 12.808 Q 61.901 12.808 61.742 12.619 Q 61.583 12.429 61.583 12.081 L 61.583 10.386 L 61.085 10.386 L 61.085 10.025 L 61.583 10.025 L 61.583 9.364 Z" style="fill: rgb(0, 0, 0); white-space: pre;"/>
              <path d="M 63.135 13.49 L 62.87 13.308 Q 63.107 12.977 63.118 12.626 L 63.118 12.205 L 63.575 12.205 L 63.575 12.571 Q 63.575 12.826 63.45 13.081 Q 63.325 13.336 63.135 13.49 Z" style="fill: rgb(0, 0, 0); white-space: pre;"/>
              <path d="M 67.116 12.033 Q 67.116 11.843 66.974 11.739 Q 66.831 11.634 66.476 11.558 Q 66.121 11.482 65.913 11.376 Q 65.705 11.27 65.605 11.124 Q 65.505 10.977 65.505 10.775 Q 65.505 10.439 65.789 10.207 Q 66.073 9.975 66.515 9.975 Q 66.98 9.975 67.269 10.215 Q 67.558 10.455 67.558 10.828 L 67.089 10.828 Q 67.089 10.636 66.926 10.497 Q 66.763 10.359 66.515 10.359 Q 66.26 10.359 66.116 10.47 Q 65.972 10.581 65.972 10.76 Q 65.972 10.929 66.106 11.015 Q 66.24 11.101 66.59 11.179 Q 66.94 11.258 67.157 11.366 Q 67.374 11.475 67.479 11.628 Q 67.583 11.78 67.583 12 Q 67.583 12.366 67.291 12.587 Q 66.998 12.808 66.53 12.808 Q 66.202 12.808 65.95 12.692 Q 65.697 12.576 65.554 12.367 Q 65.412 12.159 65.412 11.917 L 65.879 11.917 Q 65.892 12.152 66.067 12.289 Q 66.243 12.427 66.53 12.427 Q 66.796 12.427 66.956 12.319 Q 67.116 12.212 67.116 12.033 Z" style="fill: rgb(0, 0, 0); white-space: pre;"/>
              <path d="M 69.362 12.808 Q 68.807 12.808 68.458 12.443 Q 68.11 12.078 68.11 11.467 L 68.11 11.381 Q 68.11 10.975 68.265 10.655 Q 68.42 10.336 68.699 10.155 Q 68.979 9.975 69.304 9.975 Q 69.837 9.975 70.133 10.326 Q 70.428 10.677 70.428 11.331 L 70.428 11.525 L 68.577 11.525 Q 68.587 11.929 68.813 12.178 Q 69.039 12.427 69.388 12.427 Q 69.635 12.427 69.807 12.326 Q 69.979 12.225 70.107 12.058 L 70.393 12.28 Q 70.049 12.808 69.362 12.808 Z M 69.304 10.359 Q 69.021 10.359 68.83 10.564 Q 68.638 10.77 68.592 11.141 L 69.961 11.141 L 69.961 11.106 Q 69.941 10.75 69.769 10.554 Q 69.597 10.359 69.304 10.359 Z" style="fill: rgb(0, 0, 0); white-space: pre;"/>
              <path d="M 70.896 11.369 Q 70.896 10.74 71.194 10.357 Q 71.492 9.975 71.974 9.975 Q 72.454 9.975 72.735 10.303 L 72.735 8.879 L 73.202 8.879 L 73.202 12.758 L 72.772 12.758 L 72.75 12.465 Q 72.469 12.808 71.969 12.808 Q 71.495 12.808 71.195 12.419 Q 70.896 12.03 70.896 11.404 Z M 71.363 11.422 Q 71.363 11.886 71.555 12.149 Q 71.747 12.412 72.086 12.412 Q 72.53 12.412 72.735 12.013 L 72.735 10.758 Q 72.525 10.371 72.091 10.371 Q 71.747 10.371 71.555 10.636 Q 71.363 10.902 71.363 11.422 Z" style="fill: rgb(0, 0, 0); white-space: pre;"/>
              <path d="M 0.24 19.126 Q 0.24 18.498 0.538 18.115 Q 0.836 17.732 1.318 17.732 Q 1.798 17.732 2.078 18.061 L 2.078 16.636 L 2.545 16.636 L 2.545 20.515 L 2.116 20.515 L 2.093 20.222 Q 1.813 20.566 1.313 20.566 Q 0.838 20.566 0.539 20.177 Q 0.24 19.788 0.24 19.162 Z M 0.707 19.179 Q 0.707 19.644 0.899 19.907 Q 1.091 20.169 1.429 20.169 Q 1.874 20.169 2.078 19.77 L 2.078 18.515 Q 1.869 18.129 1.434 18.129 Q 1.091 18.129 0.899 18.394 Q 0.707 18.659 0.707 19.179 Z" style="fill: rgb(0, 0, 0); white-space: pre;"/>
              <path d="M 3.183 19.124 Q 3.183 18.722 3.341 18.402 Q 3.499 18.081 3.78 17.907 Q 4.062 17.732 4.423 17.732 Q 4.981 17.732 5.326 18.119 Q 5.67 18.505 5.67 19.147 L 5.67 19.179 Q 5.67 19.578 5.518 19.895 Q 5.365 20.212 5.081 20.389 Q 4.797 20.566 4.428 20.566 Q 3.872 20.566 3.528 20.179 Q 3.183 19.793 3.183 19.157 Z M 3.653 19.179 Q 3.653 19.634 3.863 19.909 Q 4.074 20.184 4.428 20.184 Q 4.784 20.184 4.994 19.905 Q 5.203 19.626 5.203 19.124 Q 5.203 18.674 4.99 18.395 Q 4.776 18.116 4.423 18.116 Q 4.077 18.116 3.865 18.391 Q 3.653 18.667 3.653 19.179 Z" style="fill: rgb(0, 0, 0); white-space: pre;"/>
              <path d="M 8.753 20.566 Q 8.197 20.566 7.849 20.201 Q 7.5 19.836 7.5 19.225 L 7.5 19.139 Q 7.5 18.732 7.656 18.413 Q 7.811 18.093 8.09 17.913 Q 8.369 17.732 8.695 17.732 Q 9.228 17.732 9.523 18.083 Q 9.819 18.434 9.819 19.088 L 9.819 19.283 L 7.968 19.283 Q 7.978 19.687 8.204 19.936 Q 8.43 20.184 8.778 20.184 Q 9.026 20.184 9.197 20.083 Q 9.369 19.982 9.498 19.816 L 9.783 20.038 Q 9.44 20.566 8.753 20.566 Z M 8.695 18.116 Q 8.412 18.116 8.22 18.322 Q 8.028 18.528 7.983 18.899 L 9.351 18.899 L 9.351 18.864 Q 9.331 18.508 9.16 18.312 Q 8.988 18.116 8.695 18.116 Z" style="fill: rgb(0, 0, 0); white-space: pre;"/>
              <path d="M 10.908 20.515 L 10.441 20.515 L 10.441 17.783 L 10.908 17.783 Z M 10.403 17.058 Q 10.403 16.944 10.472 16.866 Q 10.542 16.788 10.678 16.788 Q 10.815 16.788 10.885 16.866 Q 10.956 16.944 10.956 17.058 Q 10.956 17.172 10.885 17.248 Q 10.815 17.323 10.678 17.323 Q 10.542 17.323 10.472 17.248 Q 10.403 17.172 10.403 17.058 Z" style="fill: rgb(0, 0, 0); white-space: pre;"/>
              <path d="M 13.384 20.245 Q 13.111 20.566 12.584 20.566 Q 12.147 20.566 11.918 20.312 Q 11.69 20.058 11.687 19.561 L 11.687 17.783 L 12.154 17.783 L 12.154 19.548 Q 12.154 20.169 12.659 20.169 Q 13.195 20.169 13.372 19.77 L 13.372 17.783 L 13.839 17.783 L 13.839 20.515 L 13.394 20.515 Z" style="fill: rgb(0, 0, 0); white-space: pre;"/>
              <path d="M 16.179 19.79 Q 16.179 19.601 16.036 19.496 Q 15.893 19.391 15.539 19.316 Q 15.184 19.24 14.976 19.134 Q 14.767 19.028 14.667 18.881 Q 14.568 18.735 14.568 18.533 Q 14.568 18.197 14.852 17.965 Q 15.136 17.732 15.578 17.732 Q 16.042 17.732 16.332 17.972 Q 16.621 18.212 16.621 18.586 L 16.151 18.586 Q 16.151 18.394 15.988 18.255 Q 15.825 18.116 15.578 18.116 Q 15.323 18.116 15.179 18.227 Q 15.035 18.338 15.035 18.518 Q 15.035 18.687 15.169 18.773 Q 15.303 18.859 15.652 18.937 Q 16.002 19.015 16.219 19.124 Q 16.436 19.232 16.541 19.385 Q 16.646 19.538 16.646 19.758 Q 16.646 20.124 16.353 20.345 Q 16.06 20.566 15.593 20.566 Q 15.265 20.566 15.012 20.45 Q 14.76 20.333 14.617 20.125 Q 14.474 19.917 14.474 19.674 L 14.941 19.674 Q 14.954 19.909 15.13 20.047 Q 15.305 20.184 15.593 20.184 Q 15.858 20.184 16.018 20.077 Q 16.179 19.97 16.179 19.79 Z" style="fill: rgb(0, 0, 0); white-space: pre;"/>
              <path d="M 17.73 17.783 L 17.743 18.086 Q 18.044 17.732 18.554 17.732 Q 19.127 17.732 19.334 18.172 Q 19.47 17.975 19.689 17.854 Q 19.907 17.732 20.205 17.732 Q 21.104 17.732 21.119 18.684 L 21.119 20.515 L 20.652 20.515 L 20.652 18.712 Q 20.652 18.419 20.518 18.274 Q 20.384 18.129 20.069 18.129 Q 19.809 18.129 19.637 18.284 Q 19.465 18.439 19.438 18.702 L 19.438 20.515 L 18.968 20.515 L 18.968 18.725 Q 18.968 18.129 18.384 18.129 Q 17.925 18.129 17.756 18.52 L 17.756 20.515 L 17.289 20.515 L 17.289 17.783 Z" style="fill: rgb(0, 0, 0); white-space: pre;"/>
              <path d="M 21.745 19.124 Q 21.745 18.722 21.903 18.402 Q 22.061 18.081 22.343 17.907 Q 22.624 17.732 22.985 17.732 Q 23.543 17.732 23.888 18.119 Q 24.233 18.505 24.233 19.147 L 24.233 19.179 Q 24.233 19.578 24.08 19.895 Q 23.927 20.212 23.643 20.389 Q 23.359 20.566 22.99 20.566 Q 22.435 20.566 22.09 20.179 Q 21.745 19.793 21.745 19.157 Z M 22.215 19.179 Q 22.215 19.634 22.426 19.909 Q 22.637 20.184 22.99 20.184 Q 23.346 20.184 23.556 19.905 Q 23.766 19.626 23.766 19.124 Q 23.766 18.674 23.552 18.395 Q 23.339 18.116 22.985 18.116 Q 22.639 18.116 22.427 18.391 Q 22.215 18.667 22.215 19.179 Z" style="fill: rgb(0, 0, 0); white-space: pre;"/>
              <path d="M 24.74 19.126 Q 24.74 18.498 25.038 18.115 Q 25.336 17.732 25.818 17.732 Q 26.298 17.732 26.578 18.061 L 26.578 16.636 L 27.045 16.636 L 27.045 20.515 L 26.616 20.515 L 26.593 20.222 Q 26.313 20.566 25.813 20.566 Q 25.338 20.566 25.039 20.177 Q 24.74 19.788 24.74 19.162 Z M 25.207 19.179 Q 25.207 19.644 25.399 19.907 Q 25.591 20.169 25.929 20.169 Q 26.374 20.169 26.578 19.77 L 26.578 18.515 Q 26.369 18.129 25.934 18.129 Q 25.591 18.129 25.399 18.394 Q 25.207 18.659 25.207 19.179 Z" style="fill: rgb(0, 0, 0); white-space: pre;"/>
              <path d="M 29.769 17.121 L 29.769 17.783 L 30.279 17.783 L 30.279 18.144 L 29.769 18.144 L 29.769 19.838 Q 29.769 20.003 29.837 20.085 Q 29.905 20.167 30.069 20.167 Q 30.15 20.167 30.291 20.136 L 30.291 20.515 Q 30.107 20.566 29.933 20.566 Q 29.62 20.566 29.461 20.376 Q 29.301 20.187 29.301 19.838 L 29.301 18.144 L 28.804 18.144 L 28.804 17.783 L 29.301 17.783 L 29.301 17.121 Z" style="fill: rgb(0, 0, 0); white-space: pre;"/>
              <path d="M 32.003 20.566 Q 31.447 20.566 31.099 20.201 Q 30.75 19.836 30.75 19.225 L 30.75 19.139 Q 30.75 18.732 30.906 18.413 Q 31.061 18.093 31.34 17.913 Q 31.619 17.732 31.945 17.732 Q 32.478 17.732 32.773 18.083 Q 33.069 18.434 33.069 19.088 L 33.069 19.283 L 31.218 19.283 Q 31.228 19.687 31.454 19.936 Q 31.68 20.184 32.028 20.184 Q 32.276 20.184 32.447 20.083 Q 32.619 19.982 32.748 19.816 L 33.033 20.038 Q 32.69 20.566 32.003 20.566 Z M 31.945 18.116 Q 31.662 18.116 31.47 18.322 Q 31.278 18.528 31.233 18.899 L 32.601 18.899 L 32.601 18.864 Q 32.581 18.508 32.41 18.312 Q 32.238 18.116 31.945 18.116 Z" style="fill: rgb(0, 0, 0); white-space: pre;"/>
              <path d="M 34.09 17.783 L 34.102 18.086 Q 34.403 17.732 34.913 17.732 Q 35.486 17.732 35.693 18.172 Q 35.83 17.975 36.048 17.854 Q 36.267 17.732 36.565 17.732 Q 37.464 17.732 37.479 18.684 L 37.479 20.515 L 37.012 20.515 L 37.012 18.712 Q 37.012 18.419 36.878 18.274 Q 36.744 18.129 36.428 18.129 Q 36.168 18.129 35.996 18.284 Q 35.825 18.439 35.797 18.702 L 35.797 20.515 L 35.327 20.515 L 35.327 18.725 Q 35.327 18.129 34.744 18.129 Q 34.284 18.129 34.115 18.52 L 34.115 20.515 L 33.648 20.515 L 33.648 17.783 Z" style="fill: rgb(0, 0, 0); white-space: pre;"/>
              <path d="M 40.521 19.179 Q 40.521 19.803 40.236 20.184 Q 39.95 20.566 39.463 20.566 Q 38.965 20.566 38.68 20.25 L 38.68 21.566 L 38.213 21.566 L 38.213 17.783 L 38.64 17.783 L 38.662 18.086 Q 38.948 17.732 39.455 17.732 Q 39.948 17.732 40.234 18.104 Q 40.521 18.475 40.521 19.136 Z M 40.054 19.126 Q 40.054 18.664 39.857 18.397 Q 39.66 18.129 39.316 18.129 Q 38.892 18.129 38.68 18.505 L 38.68 19.811 Q 38.89 20.184 39.321 20.184 Q 39.657 20.184 39.856 19.918 Q 40.054 19.652 40.054 19.126 Z" style="fill: rgb(0, 0, 0); white-space: pre;"/>
              <path d="M 41.027 19.124 Q 41.027 18.722 41.185 18.402 Q 41.342 18.081 41.624 17.907 Q 41.905 17.732 42.267 17.732 Q 42.825 17.732 43.169 18.119 Q 43.514 18.505 43.514 19.147 L 43.514 19.179 Q 43.514 19.578 43.361 19.895 Q 43.208 20.212 42.924 20.389 Q 42.64 20.566 42.272 20.566 Q 41.716 20.566 41.371 20.179 Q 41.027 19.793 41.027 19.157 Z M 41.496 19.179 Q 41.496 19.634 41.707 19.909 Q 41.918 20.184 42.272 20.184 Q 42.628 20.184 42.837 19.905 Q 43.047 19.626 43.047 19.124 Q 43.047 18.674 42.833 18.395 Q 42.62 18.116 42.267 18.116 Q 41.921 18.116 41.708 18.391 Q 41.496 18.667 41.496 19.179 Z" style="fill: rgb(0, 0, 0); white-space: pre;"/>
              <path d="M 45.471 18.202 Q 45.365 18.184 45.241 18.184 Q 44.782 18.184 44.618 18.576 L 44.618 20.515 L 44.15 20.515 L 44.15 17.783 L 44.605 17.783 L 44.613 18.099 Q 44.842 17.732 45.264 17.732 Q 45.4 17.732 45.471 17.768 Z" style="fill: rgb(0, 0, 0); white-space: pre;"/>
              <path d="M 47.767 20.515 L 47.3 20.515 L 47.3 17.783 L 47.767 17.783 Z M 47.262 17.058 Q 47.262 16.944 47.332 16.866 Q 47.401 16.788 47.538 16.788 Q 47.674 16.788 47.745 16.866 Q 47.815 16.944 47.815 17.058 Q 47.815 17.172 47.745 17.248 Q 47.674 17.323 47.538 17.323 Q 47.401 17.323 47.332 17.248 Q 47.262 17.172 47.262 17.058 Z" style="fill: rgb(0, 0, 0); white-space: pre;"/>
              <path d="M 48.999 17.783 L 49.014 18.126 Q 49.327 17.732 49.832 17.732 Q 50.698 17.732 50.706 18.71 L 50.706 20.515 L 50.238 20.515 L 50.238 18.707 Q 50.236 18.412 50.103 18.27 Q 49.971 18.129 49.69 18.129 Q 49.463 18.129 49.292 18.25 Q 49.12 18.371 49.024 18.568 L 49.024 20.515 L 48.557 20.515 L 48.557 17.783 Z" style="fill: rgb(0, 0, 0); white-space: pre;"/>
              <path d="M 52.559 20.184 Q 52.809 20.184 52.996 20.033 Q 53.183 19.881 53.203 19.654 L 53.645 19.654 Q 53.632 19.889 53.483 20.101 Q 53.334 20.313 53.085 20.439 Q 52.837 20.566 52.559 20.566 Q 52.001 20.566 51.671 20.193 Q 51.342 19.821 51.342 19.174 L 51.342 19.096 Q 51.342 18.697 51.488 18.386 Q 51.635 18.076 51.909 17.904 Q 52.183 17.732 52.556 17.732 Q 53.016 17.732 53.32 18.008 Q 53.625 18.283 53.645 18.722 L 53.203 18.722 Q 53.183 18.457 53.002 18.287 Q 52.821 18.116 52.556 18.116 Q 52.2 18.116 52.005 18.373 Q 51.809 18.629 51.809 19.114 L 51.809 19.202 Q 51.809 19.674 52.003 19.929 Q 52.198 20.184 52.559 20.184 Z" style="fill: rgb(0, 0, 0); white-space: pre;"/>
              <path d="M 54.705 20.515 L 54.238 20.515 L 54.238 17.783 L 54.705 17.783 Z M 54.2 17.058 Q 54.2 16.944 54.269 16.866 Q 54.339 16.788 54.475 16.788 Q 54.611 16.788 54.682 16.866 Q 54.753 16.944 54.753 17.058 Q 54.753 17.172 54.682 17.248 Q 54.611 17.323 54.475 17.323 Q 54.339 17.323 54.269 17.248 Q 54.2 17.172 54.2 17.058 Z" style="fill: rgb(0, 0, 0); white-space: pre;"/>
              <path d="M 55.396 19.126 Q 55.396 18.498 55.694 18.115 Q 55.992 17.732 56.474 17.732 Q 56.954 17.732 57.235 18.061 L 57.235 16.636 L 57.702 16.636 L 57.702 20.515 L 57.272 20.515 L 57.25 20.222 Q 56.969 20.566 56.469 20.566 Q 55.995 20.566 55.695 20.177 Q 55.396 19.788 55.396 19.162 Z M 55.863 19.179 Q 55.863 19.644 56.055 19.907 Q 56.247 20.169 56.586 20.169 Q 57.03 20.169 57.235 19.77 L 57.235 18.515 Q 57.025 18.129 56.591 18.129 Q 56.247 18.129 56.055 18.394 Q 55.863 18.659 55.863 19.179 Z" style="fill: rgb(0, 0, 0); white-space: pre;"/>
              <path d="M 58.97 20.515 L 58.503 20.515 L 58.503 17.783 L 58.97 17.783 Z M 58.465 17.058 Q 58.465 16.944 58.535 16.866 Q 58.604 16.788 58.741 16.788 Q 58.877 16.788 58.948 16.866 Q 59.018 16.944 59.018 17.058 Q 59.018 17.172 58.948 17.248 Q 58.877 17.323 58.741 17.323 Q 58.604 17.323 58.535 17.248 Q 58.465 17.172 58.465 17.058 Z" style="fill: rgb(0, 0, 0); white-space: pre;"/>
              <path d="M 59.646 19.126 Q 59.646 18.498 59.944 18.115 Q 60.242 17.732 60.724 17.732 Q 61.204 17.732 61.485 18.061 L 61.485 16.636 L 61.952 16.636 L 61.952 20.515 L 61.522 20.515 L 61.5 20.222 Q 61.219 20.566 60.719 20.566 Q 60.245 20.566 59.945 20.177 Q 59.646 19.788 59.646 19.162 Z M 60.113 19.179 Q 60.113 19.644 60.305 19.907 Q 60.497 20.169 60.836 20.169 Q 61.28 20.169 61.485 19.77 L 61.485 18.515 Q 61.275 18.129 60.841 18.129 Q 60.497 18.129 60.305 18.394 Q 60.113 18.659 60.113 19.179 Z" style="fill: rgb(0, 0, 0); white-space: pre;"/>
              <path d="M 64.4 20.245 Q 64.127 20.566 63.599 20.566 Q 63.162 20.566 62.934 20.312 Q 62.705 20.058 62.703 19.561 L 62.703 17.783 L 63.17 17.783 L 63.17 19.548 Q 63.17 20.169 63.675 20.169 Q 64.21 20.169 64.387 19.77 L 64.387 17.783 L 64.854 17.783 L 64.854 20.515 L 64.41 20.515 Z" style="fill: rgb(0, 0, 0); white-space: pre;"/>
              <path d="M 66.045 17.783 L 66.061 18.126 Q 66.374 17.732 66.879 17.732 Q 67.745 17.732 67.753 18.71 L 67.753 20.515 L 67.285 20.515 L 67.285 18.707 Q 67.283 18.412 67.15 18.27 Q 67.018 18.129 66.737 18.129 Q 66.51 18.129 66.338 18.25 Q 66.167 18.371 66.071 18.568 L 66.071 20.515 L 65.604 20.515 L 65.604 17.783 Z" style="fill: rgb(0, 0, 0); white-space: pre;"/>
              <path d="M 69.128 17.121 L 69.128 17.783 L 69.638 17.783 L 69.638 18.144 L 69.128 18.144 L 69.128 19.838 Q 69.128 20.003 69.196 20.085 Q 69.264 20.167 69.429 20.167 Q 69.509 20.167 69.651 20.136 L 69.651 20.515 Q 69.466 20.566 69.292 20.566 Q 68.979 20.566 68.82 20.376 Q 68.661 20.187 68.661 19.838 L 68.661 18.144 L 68.163 18.144 L 68.163 17.783 L 68.661 17.783 L 68.661 17.121 Z" style="fill: rgb(0, 0, 0); white-space: pre;"/>
              <path d="M 2.04 28.002 Q 1.768 28.323 1.24 28.323 Q 0.803 28.323 0.574 28.069 Q 0.346 27.816 0.343 27.318 L 0.343 25.54 L 0.811 25.54 L 0.811 27.306 Q 0.811 27.927 1.316 27.927 Q 1.851 27.927 2.028 27.528 L 2.028 25.54 L 2.495 25.54 L 2.495 28.273 L 2.051 28.273 Z" style="fill: rgb(0, 0, 0); white-space: pre;"/>
              <path d="M 3.878 24.879 L 3.878 25.54 L 4.388 25.54 L 4.388 25.901 L 3.878 25.901 L 3.878 27.596 Q 3.878 27.76 3.946 27.842 Q 4.014 27.924 4.179 27.924 Q 4.259 27.924 4.401 27.894 L 4.401 28.273 Q 4.216 28.323 4.042 28.323 Q 3.729 28.323 3.57 28.134 Q 3.411 27.944 3.411 27.596 L 3.411 25.901 L 2.913 25.901 L 2.913 25.54 L 3.411 25.54 L 3.411 24.879 Z" style="fill: rgb(0, 0, 0); white-space: pre;"/>
              <path d="M 6.799 28.273 L 6.331 28.273 L 6.331 24.394 L 6.799 24.394 Z" style="fill: rgb(0, 0, 0); white-space: pre;"/>
              <path d="M 9.275 28.273 Q 9.234 28.192 9.209 27.985 Q 8.883 28.323 8.431 28.323 Q 8.027 28.323 7.768 28.095 Q 7.51 27.866 7.51 27.515 Q 7.51 27.088 7.834 26.852 Q 8.159 26.616 8.747 26.616 L 9.202 26.616 L 9.202 26.401 Q 9.202 26.157 9.055 26.011 Q 8.909 25.866 8.623 25.866 Q 8.373 25.866 8.204 25.992 Q 8.035 26.119 8.035 26.298 L 7.565 26.298 Q 7.565 26.093 7.71 25.903 Q 7.856 25.712 8.104 25.601 Q 8.353 25.49 8.651 25.49 Q 9.123 25.49 9.391 25.726 Q 9.659 25.962 9.669 26.376 L 9.669 27.634 Q 9.669 28.01 9.765 28.232 L 9.765 28.273 Z M 8.5 27.917 Q 8.719 27.917 8.916 27.803 Q 9.113 27.689 9.202 27.508 L 9.202 26.947 L 8.835 26.947 Q 7.977 26.947 7.977 27.449 Q 7.977 27.669 8.123 27.793 Q 8.27 27.917 8.5 27.917 Z" style="fill: rgb(0, 0, 0); white-space: pre;"/>
              <path d="M 12.76 26.937 Q 12.76 27.563 12.473 27.943 Q 12.185 28.323 11.7 28.323 Q 11.182 28.323 10.899 27.957 L 10.877 28.273 L 10.447 28.273 L 10.447 24.394 L 10.914 24.394 L 10.914 25.841 Q 11.197 25.49 11.695 25.49 Q 12.192 25.49 12.476 25.866 Q 12.76 26.242 12.76 26.896 Z M 12.293 26.884 Q 12.293 26.407 12.109 26.146 Q 11.925 25.886 11.579 25.886 Q 11.116 25.886 10.914 26.316 L 10.914 27.497 Q 11.129 27.927 11.584 27.927 Q 11.92 27.927 12.106 27.667 Q 12.293 27.407 12.293 26.884 Z" style="fill: rgb(0, 0, 0); white-space: pre;"/>
              <path d="M 13.261 26.881 Q 13.261 26.48 13.419 26.159 Q 13.577 25.838 13.858 25.664 Q 14.14 25.49 14.501 25.49 Q 15.059 25.49 15.404 25.876 Q 15.748 26.263 15.748 26.904 L 15.748 26.937 Q 15.748 27.336 15.596 27.653 Q 15.443 27.97 15.159 28.146 Q 14.875 28.323 14.506 28.323 Q 13.95 28.323 13.606 27.937 Q 13.261 27.55 13.261 26.914 Z M 13.731 26.937 Q 13.731 27.391 13.942 27.667 Q 14.152 27.942 14.506 27.942 Q 14.862 27.942 15.072 27.663 Q 15.281 27.384 15.281 26.881 Q 15.281 26.432 15.068 26.153 Q 14.854 25.874 14.501 25.874 Q 14.155 25.874 13.943 26.149 Q 13.731 26.424 13.731 26.937 Z" style="fill: rgb(0, 0, 0); white-space: pre;"/>
              <path d="M 17.705 25.96 Q 17.599 25.942 17.476 25.942 Q 17.016 25.942 16.852 26.333 L 16.852 28.273 L 16.385 28.273 L 16.385 25.54 L 16.839 25.54 L 16.847 25.856 Q 17.077 25.49 17.498 25.49 Q 17.635 25.49 17.705 25.525 Z" style="fill: rgb(0, 0, 0); white-space: pre;"/>
              <path d="M 19.253 28.323 Q 18.697 28.323 18.349 27.958 Q 18 27.593 18 26.982 L 18 26.896 Q 18 26.49 18.156 26.17 Q 18.311 25.851 18.59 25.67 Q 18.869 25.49 19.195 25.49 Q 19.728 25.49 20.023 25.841 Q 20.319 26.192 20.319 26.846 L 20.319 27.04 L 18.468 27.04 Q 18.478 27.444 18.704 27.693 Q 18.93 27.942 19.278 27.942 Q 19.526 27.942 19.697 27.841 Q 19.869 27.74 19.998 27.573 L 20.283 27.795 Q 19.94 28.323 19.253 28.323 Z M 19.195 25.874 Q 18.912 25.874 18.72 26.08 Q 18.528 26.285 18.483 26.657 L 19.851 26.657 L 19.851 26.621 Q 19.831 26.265 19.66 26.069 Q 19.488 25.874 19.195 25.874 Z" style="fill: rgb(0, 0, 0); white-space: pre;"/>
              <path d="M 23.362 28.323 Q 22.807 28.323 22.458 27.958 Q 22.11 27.593 22.11 26.982 L 22.11 26.896 Q 22.11 26.49 22.265 26.17 Q 22.42 25.851 22.699 25.67 Q 22.979 25.49 23.304 25.49 Q 23.837 25.49 24.133 25.841 Q 24.428 26.192 24.428 26.846 L 24.428 27.04 L 22.577 27.04 Q 22.587 27.444 22.813 27.693 Q 23.039 27.942 23.388 27.942 Q 23.635 27.942 23.807 27.841 Q 23.979 27.74 24.107 27.573 L 24.393 27.795 Q 24.049 28.323 23.362 28.323 Z M 23.304 25.874 Q 23.021 25.874 22.83 26.08 Q 22.638 26.285 22.592 26.657 L 23.961 26.657 L 23.961 26.621 Q 23.941 26.265 23.769 26.069 Q 23.597 25.874 23.304 25.874 Z" style="fill: rgb(0, 0, 0); white-space: pre;"/>
              <path d="M 25.644 24.879 L 25.644 25.54 L 26.154 25.54 L 26.154 25.901 L 25.644 25.901 L 25.644 27.596 Q 25.644 27.76 25.712 27.842 Q 25.78 27.924 25.944 27.924 Q 26.025 27.924 26.166 27.894 L 26.166 28.273 Q 25.982 28.323 25.808 28.323 Q 25.495 28.323 25.336 28.134 Q 25.176 27.944 25.176 27.596 L 25.176 25.901 L 24.679 25.901 L 24.679 25.54 L 25.176 25.54 L 25.176 24.879 Z" style="fill: rgb(0, 0, 0); white-space: pre;"/>
              <path d="M 27.959 26.884 Q 27.959 26.255 28.257 25.872 Q 28.555 25.49 29.037 25.49 Q 29.517 25.49 29.797 25.818 L 29.797 24.394 L 30.264 24.394 L 30.264 28.273 L 29.835 28.273 L 29.812 27.98 Q 29.532 28.323 29.032 28.323 Q 28.557 28.323 28.258 27.934 Q 27.959 27.545 27.959 26.919 Z M 28.426 26.937 Q 28.426 27.401 28.618 27.664 Q 28.81 27.927 29.148 27.927 Q 29.592 27.927 29.797 27.528 L 29.797 26.273 Q 29.587 25.886 29.153 25.886 Q 28.81 25.886 28.618 26.151 Q 28.426 26.417 28.426 26.937 Z" style="fill: rgb(0, 0, 0); white-space: pre;"/>
              <path d="M 30.902 26.881 Q 30.902 26.48 31.06 26.159 Q 31.217 25.838 31.499 25.664 Q 31.78 25.49 32.142 25.49 Q 32.7 25.49 33.044 25.876 Q 33.389 26.263 33.389 26.904 L 33.389 26.937 Q 33.389 27.336 33.236 27.653 Q 33.083 27.97 32.799 28.146 Q 32.515 28.323 32.147 28.323 Q 31.591 28.323 31.246 27.937 Q 30.902 27.55 30.902 26.914 Z M 31.371 26.937 Q 31.371 27.391 31.582 27.667 Q 31.793 27.942 32.147 27.942 Q 32.503 27.942 32.712 27.663 Q 32.922 27.384 32.922 26.881 Q 32.922 26.432 32.708 26.153 Q 32.495 25.874 32.142 25.874 Q 31.796 25.874 31.583 26.149 Q 31.371 26.424 31.371 26.937 Z" style="fill: rgb(0, 0, 0); white-space: pre;"/>
              <path d="M 34.517 28.273 L 34.05 28.273 L 34.05 24.394 L 34.517 24.394 Z" style="fill: rgb(0, 0, 0); white-space: pre;"/>
              <path d="M 35.183 26.881 Q 35.183 26.48 35.341 26.159 Q 35.499 25.838 35.78 25.664 Q 36.062 25.49 36.423 25.49 Q 36.981 25.49 37.326 25.876 Q 37.67 26.263 37.67 26.904 L 37.67 26.937 Q 37.67 27.336 37.518 27.653 Q 37.365 27.97 37.081 28.146 Q 36.797 28.323 36.428 28.323 Q 35.872 28.323 35.528 27.937 Q 35.183 27.55 35.183 26.914 Z M 35.653 26.937 Q 35.653 27.391 35.863 27.667 Q 36.074 27.942 36.428 27.942 Q 36.784 27.942 36.994 27.663 Q 37.203 27.384 37.203 26.881 Q 37.203 26.432 36.99 26.153 Q 36.776 25.874 36.423 25.874 Q 36.077 25.874 35.865 26.149 Q 35.653 26.424 35.653 26.937 Z" style="fill: rgb(0, 0, 0); white-space: pre;"/>
              <path d="M 39.627 25.96 Q 39.521 25.942 39.398 25.942 Q 38.938 25.942 38.774 26.333 L 38.774 28.273 L 38.307 28.273 L 38.307 25.54 L 38.761 25.54 L 38.769 25.856 Q 38.999 25.49 39.42 25.49 Q 39.557 25.49 39.627 25.525 Z" style="fill: rgb(0, 0, 0); white-space: pre;"/>
              <path d="M 41.175 28.323 Q 40.619 28.323 40.271 27.958 Q 39.922 27.593 39.922 26.982 L 39.922 26.896 Q 39.922 26.49 40.078 26.17 Q 40.233 25.851 40.512 25.67 Q 40.791 25.49 41.117 25.49 Q 41.65 25.49 41.945 25.841 Q 42.241 26.192 42.241 26.846 L 42.241 27.04 L 40.39 27.04 Q 40.4 27.444 40.626 27.693 Q 40.852 27.942 41.2 27.942 Q 41.448 27.942 41.619 27.841 Q 41.791 27.74 41.92 27.573 L 42.205 27.795 Q 41.862 28.323 41.175 28.323 Z M 41.117 25.874 Q 40.834 25.874 40.642 26.08 Q 40.45 26.285 40.405 26.657 L 41.773 26.657 L 41.773 26.621 Q 41.753 26.265 41.581 26.069 Q 41.41 25.874 41.117 25.874 Z" style="fill: rgb(0, 0, 0); white-space: pre;"/>
              <path d="M 44.59 25.54 L 44.602 25.843 Q 44.903 25.49 45.413 25.49 Q 45.986 25.49 46.193 25.929 Q 46.33 25.732 46.548 25.611 Q 46.767 25.49 47.065 25.49 Q 47.964 25.49 47.979 26.442 L 47.979 28.273 L 47.512 28.273 L 47.512 26.47 Q 47.512 26.177 47.378 26.032 Q 47.244 25.886 46.928 25.886 Q 46.668 25.886 46.496 26.042 Q 46.325 26.197 46.297 26.46 L 46.297 28.273 L 45.827 28.273 L 45.827 26.482 Q 45.827 25.886 45.244 25.886 Q 44.784 25.886 44.615 26.278 L 44.615 28.273 L 44.148 28.273 L 44.148 25.54 Z" style="fill: rgb(0, 0, 0); white-space: pre;"/>
              <path d="M 50.4 28.273 Q 50.359 28.192 50.334 27.985 Q 50.008 28.323 49.556 28.323 Q 49.152 28.323 48.893 28.095 Q 48.635 27.866 48.635 27.515 Q 48.635 27.088 48.959 26.852 Q 49.284 26.616 49.872 26.616 L 50.327 26.616 L 50.327 26.401 Q 50.327 26.157 50.18 26.011 Q 50.034 25.866 49.748 25.866 Q 49.498 25.866 49.329 25.992 Q 49.16 26.119 49.16 26.298 L 48.69 26.298 Q 48.69 26.093 48.835 25.903 Q 48.981 25.712 49.229 25.601 Q 49.478 25.49 49.776 25.49 Q 50.248 25.49 50.516 25.726 Q 50.784 25.962 50.794 26.376 L 50.794 27.634 Q 50.794 28.01 50.89 28.232 L 50.89 28.273 Z M 49.625 27.917 Q 49.844 27.917 50.041 27.803 Q 50.238 27.689 50.327 27.508 L 50.327 26.947 L 49.96 26.947 Q 49.102 26.947 49.102 27.449 Q 49.102 27.669 49.248 27.793 Q 49.395 27.917 49.625 27.917 Z" style="fill: rgb(0, 0, 0); white-space: pre;"/>
              <path d="M 51.461 26.884 Q 51.461 26.245 51.757 25.867 Q 52.052 25.49 52.539 25.49 Q 53.039 25.49 53.32 25.843 L 53.342 25.54 L 53.769 25.54 L 53.769 28.207 Q 53.769 28.737 53.455 29.043 Q 53.14 29.348 52.61 29.348 Q 52.315 29.348 52.032 29.222 Q 51.749 29.096 51.6 28.876 L 51.842 28.596 Q 52.143 28.967 52.577 28.967 Q 52.918 28.967 53.109 28.775 Q 53.3 28.583 53.3 28.235 L 53.3 28 Q 53.019 28.323 52.534 28.323 Q 52.055 28.323 51.758 27.937 Q 51.461 27.55 51.461 26.884 Z M 51.931 26.937 Q 51.931 27.399 52.12 27.663 Q 52.31 27.927 52.651 27.927 Q 53.092 27.927 53.3 27.525 L 53.3 26.278 Q 53.085 25.886 52.656 25.886 Q 52.315 25.886 52.123 26.151 Q 51.931 26.417 51.931 26.937 Z" style="fill: rgb(0, 0, 0); white-space: pre;"/>
              <path d="M 54.952 25.54 L 54.967 25.884 Q 55.28 25.49 55.785 25.49 Q 56.651 25.49 56.659 26.467 L 56.659 28.273 L 56.192 28.273 L 56.192 26.465 Q 56.189 26.169 56.057 26.028 Q 55.924 25.886 55.644 25.886 Q 55.416 25.886 55.245 26.008 Q 55.073 26.129 54.977 26.326 L 54.977 28.273 L 54.51 28.273 L 54.51 25.54 Z" style="fill: rgb(0, 0, 0); white-space: pre;"/>
              <path d="M 59.087 28.273 Q 59.047 28.192 59.022 27.985 Q 58.696 28.323 58.244 28.323 Q 57.84 28.323 57.581 28.095 Q 57.322 27.866 57.322 27.515 Q 57.322 27.088 57.647 26.852 Q 57.971 26.616 58.56 26.616 L 59.014 26.616 L 59.014 26.401 Q 59.014 26.157 58.868 26.011 Q 58.721 25.866 58.436 25.866 Q 58.186 25.866 58.017 25.992 Q 57.847 26.119 57.847 26.298 L 57.378 26.298 Q 57.378 26.093 57.523 25.903 Q 57.668 25.712 57.917 25.601 Q 58.166 25.49 58.464 25.49 Q 58.936 25.49 59.203 25.726 Q 59.471 25.962 59.481 26.376 L 59.481 27.634 Q 59.481 28.01 59.577 28.232 L 59.577 28.273 Z M 58.312 27.917 Q 58.532 27.917 58.729 27.803 Q 58.926 27.689 59.014 27.508 L 59.014 26.947 L 58.648 26.947 Q 57.789 26.947 57.789 27.449 Q 57.789 27.669 57.936 27.793 Q 58.082 27.917 58.312 27.917 Z" style="fill: rgb(0, 0, 0); white-space: pre;"/>
              <path d="M 64.007 27.629 L 64.532 25.54 L 65 25.54 L 64.204 28.273 L 63.825 28.273 L 63.161 26.202 L 62.515 28.273 L 62.136 28.273 L 61.343 25.54 L 61.808 25.54 L 62.345 27.586 L 62.982 25.54 L 63.358 25.54 Z" style="fill: rgb(0, 0, 0); white-space: pre;"/>
              <path d="M 66.017 28.273 L 65.55 28.273 L 65.55 25.54 L 66.017 25.54 Z M 65.512 24.816 Q 65.512 24.702 65.582 24.624 Q 65.651 24.545 65.788 24.545 Q 65.924 24.545 65.995 24.624 Q 66.065 24.702 66.065 24.816 Q 66.065 24.929 65.995 25.005 Q 65.924 25.081 65.788 25.081 Q 65.651 25.081 65.582 25.005 Q 65.512 24.929 65.512 24.816 Z" style="fill: rgb(0, 0, 0); white-space: pre;"/>
              <path d="M 68.127 25.96 Q 68.021 25.942 67.898 25.942 Q 67.438 25.942 67.274 26.333 L 67.274 28.273 L 66.807 28.273 L 66.807 25.54 L 67.261 25.54 L 67.269 25.856 Q 67.499 25.49 67.92 25.49 Q 68.057 25.49 68.127 25.525 Z" style="fill: rgb(0, 0, 0); white-space: pre;"/>
              <path d="M 69.111 28.273 L 68.644 28.273 L 68.644 24.394 L 69.111 24.394 Z" style="fill: rgb(0, 0, 0); white-space: pre;"/>
              <path d="M 2.04 36.03 Q 2 35.949 1.975 35.742 Q 1.649 36.081 1.197 36.081 Q 0.793 36.081 0.534 35.852 Q 0.275 35.624 0.275 35.273 Q 0.275 34.846 0.6 34.61 Q 0.924 34.374 1.513 34.374 L 1.967 34.374 L 1.967 34.159 Q 1.967 33.914 1.821 33.769 Q 1.674 33.624 1.389 33.624 Q 1.139 33.624 0.97 33.75 Q 0.801 33.876 0.801 34.056 L 0.331 34.056 Q 0.331 33.851 0.476 33.66 Q 0.621 33.47 0.87 33.359 Q 1.119 33.247 1.417 33.247 Q 1.889 33.247 2.157 33.484 Q 2.424 33.72 2.434 34.134 L 2.434 35.391 Q 2.434 35.768 2.53 35.99 L 2.53 36.03 Z M 1.265 35.674 Q 1.485 35.674 1.682 35.561 Q 1.879 35.447 1.967 35.265 L 1.967 34.705 L 1.601 34.705 Q 0.742 34.705 0.742 35.207 Q 0.742 35.427 0.889 35.551 Q 1.035 35.674 1.265 35.674 Z" style="fill: rgb(0, 0, 0); white-space: pre;"/>
              <path d="M 3.705 36.03 L 3.238 36.03 L 3.238 32.152 L 3.705 32.152 Z" style="fill: rgb(0, 0, 0); white-space: pre;"/>
              <path d="M 5.002 36.03 L 4.535 36.03 L 4.535 33.298 L 5.002 33.298 Z M 4.497 32.573 Q 4.497 32.46 4.566 32.381 Q 4.636 32.303 4.772 32.303 Q 4.908 32.303 4.979 32.381 Q 5.05 32.46 5.05 32.573 Q 5.05 32.687 4.979 32.763 Q 4.908 32.838 4.772 32.838 Q 4.636 32.838 4.566 32.763 Q 4.497 32.687 4.497 32.573 Z" style="fill: rgb(0, 0, 0); white-space: pre;"/>
              <path d="M 5.677 34.641 Q 5.677 33.997 5.973 33.622 Q 6.268 33.247 6.766 33.247 Q 7.251 33.247 7.531 33.573 L 7.551 33.298 L 7.98 33.298 L 7.98 37.081 L 7.513 37.081 L 7.513 35.778 Q 7.23 36.081 6.761 36.081 Q 6.266 36.081 5.972 35.696 Q 5.677 35.311 5.677 34.674 Z M 6.145 34.694 Q 6.145 35.164 6.343 35.432 Q 6.541 35.699 6.877 35.699 Q 7.294 35.699 7.513 35.331 L 7.513 33.992 Q 7.291 33.631 6.882 33.631 Q 6.544 33.631 6.344 33.9 Q 6.145 34.169 6.145 34.694 Z" style="fill: rgb(0, 0, 0); white-space: pre;"/>
              <path d="M 10.462 35.76 Q 10.19 36.081 9.662 36.081 Q 9.225 36.081 8.996 35.827 Q 8.768 35.573 8.765 35.076 L 8.765 33.298 L 9.232 33.298 L 9.232 35.063 Q 9.232 35.684 9.738 35.684 Q 10.273 35.684 10.45 35.285 L 10.45 33.298 L 10.917 33.298 L 10.917 36.03 L 10.472 36.03 Z" style="fill: rgb(0, 0, 0); white-space: pre;"/>
              <path d="M 13.353 36.03 Q 13.313 35.949 13.287 35.742 Q 12.961 36.081 12.509 36.081 Q 12.105 36.081 11.847 35.852 Q 11.588 35.624 11.588 35.273 Q 11.588 34.846 11.912 34.61 Q 12.237 34.374 12.825 34.374 L 13.28 34.374 L 13.28 34.159 Q 13.28 33.914 13.133 33.769 Q 12.987 33.624 12.701 33.624 Q 12.451 33.624 12.282 33.75 Q 12.113 33.876 12.113 34.056 L 11.643 34.056 Q 11.643 33.851 11.789 33.66 Q 11.934 33.47 12.182 33.359 Q 12.431 33.247 12.729 33.247 Q 13.201 33.247 13.469 33.484 Q 13.737 33.72 13.747 34.134 L 13.747 35.391 Q 13.747 35.768 13.843 35.99 L 13.843 36.03 Z M 12.578 35.674 Q 12.797 35.674 12.994 35.561 Q 13.191 35.447 13.28 35.265 L 13.28 34.705 L 12.914 34.705 Q 12.055 34.705 12.055 35.207 Q 12.055 35.427 12.201 35.551 Q 12.348 35.674 12.578 35.674 Z" style="fill: rgb(0, 0, 0); white-space: pre;"/>
              <path d="M 14.536 35.785 Q 14.536 35.664 14.607 35.583 Q 14.679 35.503 14.823 35.503 Q 14.967 35.503 15.042 35.583 Q 15.116 35.664 15.116 35.785 Q 15.116 35.902 15.042 35.98 Q 14.967 36.058 14.823 36.058 Q 14.679 36.058 14.607 35.98 Q 14.536 35.902 14.536 35.785 Z" style="fill: rgb(0, 0, 0); white-space: pre;"/>
              <path d="M 19.921 32.354 L 19.921 34.854 Q 19.919 35.374 19.594 35.705 Q 19.27 36.035 18.714 36.076 L 18.586 36.081 Q 17.982 36.081 17.623 35.755 Q 17.265 35.429 17.26 34.859 L 17.26 32.354 L 17.74 32.354 L 17.74 34.843 Q 17.74 35.242 17.959 35.463 Q 18.179 35.684 18.586 35.684 Q 18.997 35.684 19.216 35.465 Q 19.434 35.245 19.434 34.846 L 19.434 32.354 Z" style="fill: rgb(0, 0, 0); white-space: pre;"/>
              <path d="M 22.958 34.694 Q 22.958 35.318 22.673 35.699 Q 22.388 36.081 21.9 36.081 Q 21.403 36.081 21.118 35.765 L 21.118 37.081 L 20.65 37.081 L 20.65 33.298 L 21.077 33.298 L 21.1 33.601 Q 21.385 33.247 21.893 33.247 Q 22.385 33.247 22.672 33.619 Q 22.958 33.99 22.958 34.652 Z M 22.491 34.641 Q 22.491 34.179 22.294 33.912 Q 22.097 33.644 21.754 33.644 Q 21.33 33.644 21.118 34.02 L 21.118 35.326 Q 21.327 35.699 21.759 35.699 Q 22.095 35.699 22.293 35.433 Q 22.491 35.167 22.491 34.641 Z" style="fill: rgb(0, 0, 0); white-space: pre;"/>
              <path d="M 26.05 36.081 Q 25.494 36.081 25.146 35.716 Q 24.797 35.351 24.797 34.74 L 24.797 34.654 Q 24.797 34.247 24.953 33.928 Q 25.108 33.609 25.387 33.428 Q 25.666 33.247 25.992 33.247 Q 26.525 33.247 26.82 33.598 Q 27.116 33.949 27.116 34.604 L 27.116 34.798 L 25.265 34.798 Q 25.275 35.202 25.501 35.451 Q 25.727 35.699 26.075 35.699 Q 26.323 35.699 26.494 35.598 Q 26.666 35.497 26.795 35.331 L 27.08 35.553 Q 26.737 36.081 26.05 36.081 Z M 25.992 33.631 Q 25.709 33.631 25.517 33.837 Q 25.325 34.043 25.28 34.414 L 26.648 34.414 L 26.648 34.379 Q 26.628 34.023 26.456 33.827 Q 26.285 33.631 25.992 33.631 Z" style="fill: rgb(0, 0, 0); white-space: pre;"/>
              <path d="M 28.614 34.295 L 29.22 33.298 L 29.765 33.298 L 28.872 34.649 L 29.793 36.03 L 29.253 36.03 L 28.622 35.008 L 27.99 36.03 L 27.447 36.03 L 28.369 34.649 L 27.475 33.298 L 28.015 33.298 Z" style="fill: rgb(0, 0, 0); white-space: pre;"/>
              <path d="M 30.799 36.03 L 30.331 36.03 L 30.331 32.152 L 30.799 32.152 Z" style="fill: rgb(0, 0, 0); white-space: pre;"/>
              <path d="M 33.275 36.03 Q 33.234 35.949 33.209 35.742 Q 32.883 36.081 32.431 36.081 Q 32.027 36.081 31.768 35.852 Q 31.51 35.624 31.51 35.273 Q 31.51 34.846 31.834 34.61 Q 32.159 34.374 32.747 34.374 L 33.202 34.374 L 33.202 34.159 Q 33.202 33.914 33.055 33.769 Q 32.909 33.624 32.623 33.624 Q 32.373 33.624 32.204 33.75 Q 32.035 33.876 32.035 34.056 L 31.565 34.056 Q 31.565 33.851 31.71 33.66 Q 31.856 33.47 32.104 33.359 Q 32.353 33.247 32.651 33.247 Q 33.123 33.247 33.391 33.484 Q 33.659 33.72 33.669 34.134 L 33.669 35.391 Q 33.669 35.768 33.765 35.99 L 33.765 36.03 Z M 32.5 35.674 Q 32.719 35.674 32.916 35.561 Q 33.113 35.447 33.202 35.265 L 33.202 34.705 L 32.835 34.705 Q 31.977 34.705 31.977 35.207 Q 31.977 35.427 32.123 35.551 Q 32.27 35.674 32.5 35.674 Z" style="fill: rgb(0, 0, 0); white-space: pre;"/>
              <path d="M 36.76 34.694 Q 36.76 35.321 36.473 35.701 Q 36.185 36.081 35.7 36.081 Q 35.182 36.081 34.899 35.715 L 34.877 36.03 L 34.447 36.03 L 34.447 32.152 L 34.914 32.152 L 34.914 33.598 Q 35.197 33.247 35.695 33.247 Q 36.192 33.247 36.476 33.624 Q 36.76 34 36.76 34.654 Z M 36.293 34.641 Q 36.293 34.164 36.109 33.904 Q 35.925 33.644 35.579 33.644 Q 35.116 33.644 34.914 34.073 L 34.914 35.255 Q 35.129 35.684 35.584 35.684 Q 35.92 35.684 36.106 35.424 Q 36.293 35.164 36.293 34.641 Z" style="fill: rgb(0, 0, 0); white-space: pre;"/>
              <path d="M 37.261 34.639 Q 37.261 34.237 37.419 33.917 Q 37.577 33.596 37.858 33.422 Q 38.14 33.247 38.501 33.247 Q 39.059 33.247 39.404 33.634 Q 39.748 34.02 39.748 34.662 L 39.748 34.694 Q 39.748 35.093 39.596 35.41 Q 39.443 35.727 39.159 35.904 Q 38.875 36.081 38.506 36.081 Q 37.95 36.081 37.606 35.694 Q 37.261 35.308 37.261 34.672 Z M 37.731 34.694 Q 37.731 35.149 37.942 35.424 Q 38.152 35.699 38.506 35.699 Q 38.862 35.699 39.072 35.42 Q 39.281 35.141 39.281 34.639 Q 39.281 34.189 39.068 33.91 Q 38.854 33.631 38.501 33.631 Q 38.155 33.631 37.943 33.907 Q 37.731 34.182 37.731 34.694 Z" style="fill: rgb(0, 0, 0); white-space: pre;"/>
              <path d="M 41.705 33.717 Q 41.599 33.699 41.476 33.699 Q 41.016 33.699 40.852 34.091 L 40.852 36.03 L 40.385 36.03 L 40.385 33.298 L 40.839 33.298 L 40.847 33.614 Q 41.077 33.247 41.498 33.247 Q 41.635 33.247 41.705 33.283 Z" style="fill: rgb(0, 0, 0); white-space: pre;"/>
              <path d="M 43.853 35.76 Q 43.58 36.081 43.052 36.081 Q 42.616 36.081 42.387 35.827 Q 42.158 35.573 42.156 35.076 L 42.156 33.298 L 42.623 33.298 L 42.623 35.063 Q 42.623 35.684 43.128 35.684 Q 43.664 35.684 43.84 35.285 L 43.84 33.298 L 44.307 33.298 L 44.307 36.03 L 43.863 36.03 Z" style="fill: rgb(0, 0, 0); white-space: pre;"/>
              <path d="M 45.496 33.298 L 45.509 33.601 Q 45.809 33.247 46.319 33.247 Q 46.893 33.247 47.1 33.687 Q 47.236 33.49 47.454 33.369 Q 47.673 33.247 47.971 33.247 Q 48.87 33.247 48.885 34.199 L 48.885 36.03 L 48.418 36.03 L 48.418 34.227 Q 48.418 33.934 48.284 33.789 Q 48.15 33.644 47.834 33.644 Q 47.574 33.644 47.403 33.799 Q 47.231 33.955 47.203 34.217 L 47.203 36.03 L 46.733 36.03 L 46.733 34.24 Q 46.733 33.644 46.15 33.644 Q 45.69 33.644 45.521 34.035 L 45.521 36.03 L 45.054 36.03 L 45.054 33.298 Z" style="fill: rgb(0, 0, 0); white-space: pre;"/>
              <path d="M 51.455 36.03 L 50.988 36.03 L 50.988 33.298 L 51.455 33.298 Z M 50.95 32.573 Q 50.95 32.46 51.019 32.381 Q 51.089 32.303 51.225 32.303 Q 51.361 32.303 51.432 32.381 Q 51.503 32.46 51.503 32.573 Q 51.503 32.687 51.432 32.763 Q 51.361 32.838 51.225 32.838 Q 51.089 32.838 51.019 32.763 Q 50.95 32.687 50.95 32.573 Z" style="fill: rgb(0, 0, 0); white-space: pre;"/>
              <path d="M 52.702 33.298 L 52.717 33.641 Q 53.03 33.247 53.535 33.247 Q 54.401 33.247 54.409 34.225 L 54.409 36.03 L 53.942 36.03 L 53.942 34.222 Q 53.939 33.927 53.807 33.785 Q 53.674 33.644 53.394 33.644 Q 53.166 33.644 52.995 33.765 Q 52.823 33.886 52.727 34.083 L 52.727 36.03 L 52.26 36.03 L 52.26 33.298 Z" style="fill: rgb(0, 0, 0); white-space: pre;"/>
              <path d="M 56.246 35.699 Q 56.496 35.699 56.683 35.548 Q 56.87 35.396 56.89 35.169 L 57.332 35.169 Q 57.32 35.404 57.171 35.616 Q 57.022 35.828 56.773 35.955 Q 56.524 36.081 56.246 36.081 Q 55.688 36.081 55.359 35.708 Q 55.029 35.336 55.029 34.689 L 55.029 34.611 Q 55.029 34.212 55.176 33.902 Q 55.322 33.591 55.596 33.419 Q 55.87 33.247 56.244 33.247 Q 56.703 33.247 57.008 33.523 Q 57.312 33.798 57.332 34.237 L 56.89 34.237 Q 56.87 33.972 56.69 33.802 Q 56.509 33.631 56.244 33.631 Q 55.888 33.631 55.692 33.888 Q 55.496 34.144 55.496 34.629 L 55.496 34.717 Q 55.496 35.189 55.691 35.444 Q 55.885 35.699 56.246 35.699 Z" style="fill: rgb(0, 0, 0); white-space: pre;"/>
              <path d="M 58.408 36.03 L 57.941 36.03 L 57.941 33.298 L 58.408 33.298 Z M 57.903 32.573 Q 57.903 32.46 57.972 32.381 Q 58.042 32.303 58.178 32.303 Q 58.315 32.303 58.385 32.381 Q 58.456 32.46 58.456 32.573 Q 58.456 32.687 58.385 32.763 Q 58.315 32.838 58.178 32.838 Q 58.042 32.838 57.972 32.763 Q 57.903 32.687 57.903 32.573 Z" style="fill: rgb(0, 0, 0); white-space: pre;"/>
              <path d="M 59.084 34.641 Q 59.084 34.013 59.382 33.63 Q 59.68 33.247 60.162 33.247 Q 60.642 33.247 60.922 33.576 L 60.922 32.152 L 61.389 32.152 L 61.389 36.03 L 60.96 36.03 L 60.937 35.737 Q 60.657 36.081 60.157 36.081 Q 59.682 36.081 59.383 35.692 Q 59.084 35.303 59.084 34.677 Z M 59.551 34.694 Q 59.551 35.159 59.743 35.422 Q 59.935 35.684 60.273 35.684 Q 60.717 35.684 60.922 35.285 L 60.922 34.03 Q 60.712 33.644 60.278 33.644 Q 59.935 33.644 59.743 33.909 Q 59.551 34.174 59.551 34.694 Z" style="fill: rgb(0, 0, 0); white-space: pre;"/>
              <path d="M 62.658 36.03 L 62.191 36.03 L 62.191 33.298 L 62.658 33.298 Z M 62.153 32.573 Q 62.153 32.46 62.222 32.381 Q 62.292 32.303 62.428 32.303 Q 62.565 32.303 62.635 32.381 Q 62.706 32.46 62.706 32.573 Q 62.706 32.687 62.635 32.763 Q 62.565 32.838 62.428 32.838 Q 62.292 32.838 62.222 32.763 Q 62.153 32.687 62.153 32.573 Z" style="fill: rgb(0, 0, 0); white-space: pre;"/>
              <path d="M 63.334 34.641 Q 63.334 34.013 63.632 33.63 Q 63.93 33.247 64.412 33.247 Q 64.892 33.247 65.172 33.576 L 65.172 32.152 L 65.639 32.152 L 65.639 36.03 L 65.21 36.03 L 65.187 35.737 Q 64.907 36.081 64.407 36.081 Q 63.932 36.081 63.633 35.692 Q 63.334 35.303 63.334 34.677 Z M 63.801 34.694 Q 63.801 35.159 63.993 35.422 Q 64.185 35.684 64.523 35.684 Q 64.967 35.684 65.172 35.285 L 65.172 34.03 Q 64.962 33.644 64.528 33.644 Q 64.185 33.644 63.993 33.909 Q 63.801 34.174 63.801 34.694 Z" style="fill: rgb(0, 0, 0); white-space: pre;"/>
              <path d="M 68.087 35.76 Q 67.815 36.081 67.287 36.081 Q 66.85 36.081 66.621 35.827 Q 66.393 35.573 66.39 35.076 L 66.39 33.298 L 66.857 33.298 L 66.857 35.063 Q 66.857 35.684 67.363 35.684 Q 67.898 35.684 68.075 35.285 L 68.075 33.298 L 68.542 33.298 L 68.542 36.03 L 68.097 36.03 Z" style="fill: rgb(0, 0, 0); white-space: pre;"/>
              <path d="M 69.749 33.298 L 69.764 33.641 Q 70.077 33.247 70.582 33.247 Q 71.448 33.247 71.456 34.225 L 71.456 36.03 L 70.988 36.03 L 70.988 34.222 Q 70.986 33.927 70.853 33.785 Q 70.721 33.644 70.44 33.644 Q 70.213 33.644 70.042 33.765 Q 69.87 33.886 69.774 34.083 L 69.774 36.03 L 69.307 36.03 L 69.307 33.298 Z" style="fill: rgb(0, 0, 0); white-space: pre;"/>
              <path d="M 72.831 32.636 L 72.831 33.298 L 73.341 33.298 L 73.341 33.659 L 72.831 33.659 L 72.831 35.354 Q 72.831 35.518 72.899 35.6 Q 72.967 35.682 73.132 35.682 Q 73.212 35.682 73.354 35.652 L 73.354 36.03 Q 73.17 36.081 72.995 36.081 Q 72.682 36.081 72.523 35.891 Q 72.364 35.702 72.364 35.354 L 72.364 33.659 L 71.866 33.659 L 71.866 33.298 L 72.364 33.298 L 72.364 32.636 Z" style="fill: rgb(0, 0, 0); white-space: pre;"/>
            </g>
          </g>
          <g id="__HcfKmG2__Text-/-H6-/-Background-/-Left" mask="url(#__HcfKmG2__mask-6)" fill-opacity="0.87" font-family="Roboto-Medium, Roboto" font-size="6.46464646" font-weight="400" letter-spacing="0.0484848504" opacity="0.87">
            <g transform="translate(7.757576, 6.787879)" id="__HcfKmG2__Headline-6">
              <text style="fill: rgb(0, 0, 0); white-space: pre;"><tspan x="0" y="6" style="font-family: Roboto;">Dialog Heade</tspan><tspan>r</tspan></text>
            </g>
          </g>
        </g>
      </g>
    </g>
  </g>
</svg>