<?xml version="1.0" encoding="utf-8"?>
<svg viewBox="0 0 180 180" xmlns="http://www.w3.org/2000/svg">
  <defs>
    <filter x="-11.8%" y="-67.7%" width="123.6%" height="277.1%" filterUnits="objectBoundingBox" id="__3L_YbbP__filter-5">
      <feOffset dx="0" dy="3" in="SourceAlpha" result="shadowOffsetOuter1"/>
      <feGaussianBlur stdDeviation="2.5" in="shadowOffsetOuter1" result="shadowBlurOuter1"/>
      <feColorMatrix values="0 0 0 0 0 0 0 0 0 0 0 0 0 0 0 0 0 0 0.2 0" type="matrix" in="shadowBlurOuter1" result="shadowMatrixOuter1"/>
      <feOffset dx="0" dy="1" in="SourceAlpha" result="shadowOffsetOuter2"/>
      <feGaussianBlur stdDeviation="9" in="shadowOffsetOuter2" result="shadowBlurOuter2"/>
      <feColorMatrix values="0 0 0 0 0 0 0 0 0 0 0 0 0 0 0 0 0 0 0.12 0" type="matrix" in="shadowBlurOuter2" result="shadowMatrixOuter2"/>
      <feOffset dx="0" dy="6" in="SourceAlpha" result="shadowOffsetOuter3"/>
      <feGaussianBlur stdDeviation="5" in="shadowOffsetOuter3" result="shadowBlurOuter3"/>
      <feColorMatrix values="0 0 0 0 0 0 0 0 0 0 0 0 0 0 0 0 0 0 0.14 0" type="matrix" in="shadowBlurOuter3" result="shadowMatrixOuter3"/>
      <feMerge>
        <feMergeNode in="shadowMatrixOuter1"/>
        <feMergeNode in="shadowMatrixOuter2"/>
        <feMergeNode in="shadowMatrixOuter3"/>
      </feMerge>
    </filter>
  </defs>
  <g id="__3L_YbbP__snackbar_180px" stroke="none" stroke-width="1" fill="none" fill-rule="evenodd">
    <mask id="__3L_YbbP__mask-2" fill="white">
      <rect x="0" y="0" width="180" height="180" transform="matrix(1, 0, 0, 1, 0, 0)"/>
    </mask>
    <rect id="__3L_YbbP__Mask" x="0" y="0" width="180" height="180" transform="matrix(1, 0, 0, 1, 0, 0)" fill="#FAFAFA"/>
    <g id="__3L_YbbP__Snackbar-/-Single" mask="url(#__3L_YbbP__mask-2)">
      <g transform="translate(16.000000, 66.000000)">
        <mask id="__3L_YbbP__mask-4" fill="white">
          <path d="M4,0 L356,0 C358.209139,-4.05812251e-16 360,1.790861 360,4 L360,44 C360,46.209139 358.209139,48 356,48 L4,48 C1.790861,48 2.705415e-16,46.209139 0,44 L0,4 C-2.705415e-16,1.790861 1.790861,4.05812251e-16 4,0 Z" transform="matrix(1, 0, 0, 1, 0, 0)"/>
        </mask>
        <g id="__3L_YbbP__Surface" stroke="none" fill="none">
          <path d="M4,0 L356,0 C358.209139,-4.05812251e-16 360,1.790861 360,4 L360,44 C360,46.209139 358.209139,48 356,48 L4,48 C1.790861,48 2.705415e-16,46.209139 0,44 L0,4 C-2.705415e-16,1.790861 1.790861,4.05812251e-16 4,0 Z" transform="matrix(1, 0, 0, 1, 0, 0)" fill="black" fill-opacity="1" filter="url(#__3L_YbbP__filter-5)"/>
          <path d="M4,0 L356,0 C358.209139,-4.05812251e-16 360,1.790861 360,4 L360,44 C360,46.209139 358.209139,48 356,48 L4,48 C1.790861,48 2.705415e-16,46.209139 0,44 L0,4 C-2.705415e-16,1.790861 1.790861,4.05812251e-16 4,0 Z" transform="matrix(1, 0, 0, 1, 0, 0)" fill="#FAFAFA" fill-rule="evenodd"/>
        </g>
        <g id="__3L_YbbP__✱-/-Color-/-Icons-/-Black-/-Active" stroke="none" fill="none" mask="url(#__3L_YbbP__mask-4)" fill-rule="evenodd" opacity="0.87">
          <rect id="__3L_YbbP__Rectangle-13" fill="#000000" x="0" y="0" width="360" height="48"/>
        </g>
        <g id="__3L_YbbP__Text-/-Body-2-/-P---Dark" stroke="none" fill="none" mask="url(#__3L_YbbP__mask-4)" font-family="Roboto" font-size="14" font-weight="normal" letter-spacing="0.25" line-spacing="20">
          <g transform="translate(16.000000, 14.000000)" id="__3L_YbbP__Body-2">
            <path d="M 8.504 11.694 Q 7.998 12.419 7.092 12.778 Q 6.187 13.137 4.983 13.137 Q 3.767 13.137 2.823 12.566 Q 1.88 11.995 1.364 10.942 Q 0.848 9.89 0.834 8.502 L 0.834 7.634 Q 0.834 5.385 1.883 4.147 Q 2.933 2.91 4.833 2.91 Q 6.392 2.91 7.342 3.707 Q 8.292 4.503 8.504 5.966 L 7.191 5.966 Q 6.822 3.99 4.84 3.99 Q 3.521 3.99 2.84 4.917 Q 2.16 5.843 2.153 7.6 L 2.153 8.413 Q 2.153 10.088 2.919 11.076 Q 3.685 12.063 4.99 12.063 Q 5.729 12.063 6.282 11.899 Q 6.836 11.735 7.198 11.346 L 7.198 9.11 L 4.895 9.11 L 4.895 8.044 L 8.504 8.044 Z" style="fill: rgb(255, 255, 255); white-space: pre;"/>
            <path d="M 14.313 6.738 Q 14.026 6.69 13.691 6.69 Q 12.447 6.69 12.003 7.75 L 12.003 13 L 10.738 13 L 10.738 5.604 L 11.969 5.604 L 11.989 6.458 Q 12.611 5.467 13.753 5.467 Q 14.122 5.467 14.313 5.563 Z" style="fill: rgb(255, 255, 255); white-space: pre;"/>
            <path d="M 18.667 13.137 Q 17.163 13.137 16.22 12.149 Q 15.276 11.161 15.276 9.507 L 15.276 9.274 Q 15.276 8.174 15.697 7.309 Q 16.117 6.444 16.873 5.956 Q 17.628 5.467 18.51 5.467 Q 19.952 5.467 20.752 6.417 Q 21.552 7.367 21.552 9.138 L 21.552 9.664 L 16.541 9.664 Q 16.568 10.758 17.18 11.431 Q 17.792 12.104 18.735 12.104 Q 19.405 12.104 19.87 11.831 Q 20.335 11.558 20.684 11.106 L 21.456 11.708 Q 20.526 13.137 18.667 13.137 Z M 18.51 6.506 Q 17.744 6.506 17.225 7.063 Q 16.705 7.62 16.582 8.625 L 20.287 8.625 L 20.287 8.529 Q 20.232 7.565 19.768 7.036 Q 19.303 6.506 18.51 6.506 Z" style="fill: rgb(255, 255, 255); white-space: pre;"/>
            <path d="M 25.596 11.147 L 27.318 5.604 L 28.672 5.604 L 25.698 14.142 Q 25.008 15.987 23.504 15.987 L 23.265 15.967 L 22.793 15.878 L 22.793 14.853 L 23.135 14.88 Q 23.777 14.88 24.136 14.62 Q 24.495 14.36 24.728 13.67 L 25.008 12.918 L 22.369 5.604 L 23.75 5.604 Z" style="fill: rgb(255, 255, 255); white-space: pre;"/>
            <path d="M 31.315 6.499 Q 32.156 5.467 33.503 5.467 Q 35.848 5.467 35.868 8.112 L 35.868 13 L 34.604 13 L 34.604 8.105 Q 34.597 7.306 34.238 6.923 Q 33.879 6.54 33.12 6.54 Q 32.505 6.54 32.04 6.868 Q 31.575 7.196 31.315 7.729 L 31.315 13 L 30.051 13 L 30.051 2.5 L 31.315 2.5 Z" style="fill: rgb(255, 255, 255); white-space: pre;"/>
            <path d="M 37.669 9.233 Q 37.669 8.146 38.096 7.278 Q 38.523 6.41 39.286 5.938 Q 40.048 5.467 41.025 5.467 Q 42.536 5.467 43.469 6.513 Q 44.402 7.559 44.402 9.295 L 44.402 9.384 Q 44.402 10.464 43.989 11.322 Q 43.575 12.18 42.806 12.658 Q 42.037 13.137 41.039 13.137 Q 39.535 13.137 38.602 12.091 Q 37.669 11.045 37.669 9.322 Z M 38.94 9.384 Q 38.94 10.614 39.511 11.359 Q 40.082 12.104 41.039 12.104 Q 42.003 12.104 42.57 11.349 Q 43.138 10.594 43.138 9.233 Q 43.138 8.017 42.56 7.261 Q 41.982 6.506 41.025 6.506 Q 40.089 6.506 39.515 7.251 Q 38.94 7.996 38.94 9.384 Z" style="fill: rgb(255, 255, 255); white-space: pre;"/>
            <path d="M 50.805 12.269 Q 50.066 13.137 48.638 13.137 Q 47.455 13.137 46.836 12.45 Q 46.218 11.763 46.211 10.416 L 46.211 5.604 L 47.476 5.604 L 47.476 10.382 Q 47.476 12.063 48.843 12.063 Q 50.292 12.063 50.771 10.983 L 50.771 5.604 L 52.035 5.604 L 52.035 13 L 50.832 13 Z" style="fill: rgb(255, 255, 255); white-space: pre;"/>
            <path d="M 55.403 5.604 L 55.444 6.533 Q 56.292 5.467 57.659 5.467 Q 60.004 5.467 60.024 8.112 L 60.024 13 L 58.76 13 L 58.76 8.105 Q 58.753 7.306 58.394 6.923 Q 58.035 6.54 57.276 6.54 Q 56.661 6.54 56.196 6.868 Q 55.731 7.196 55.472 7.729 L 55.472 13 L 54.207 13 L 54.207 5.604 Z" style="fill: rgb(255, 255, 255); white-space: pre;"/>
            <path d="M 61.868 9.24 Q 61.868 7.538 62.675 6.502 Q 63.481 5.467 64.787 5.467 Q 66.086 5.467 66.845 6.355 L 66.845 2.5 L 68.109 2.5 L 68.109 13 L 66.947 13 L 66.886 12.207 Q 66.127 13.137 64.773 13.137 Q 63.488 13.137 62.678 12.084 Q 61.868 11.031 61.868 9.336 Z M 63.133 9.384 Q 63.133 10.642 63.652 11.353 Q 64.172 12.063 65.088 12.063 Q 66.291 12.063 66.845 10.983 L 66.845 7.586 Q 66.277 6.54 65.102 6.54 Q 64.172 6.54 63.652 7.258 Q 63.133 7.976 63.133 9.384 Z" style="fill: rgb(255, 255, 255); white-space: pre;"/>
            <path d="M 73.743 9.24 Q 73.743 7.538 74.55 6.502 Q 75.356 5.467 76.662 5.467 Q 77.961 5.467 78.72 6.355 L 78.72 2.5 L 79.984 2.5 L 79.984 13 L 78.822 13 L 78.761 12.207 Q 78.002 13.137 76.648 13.137 Q 75.363 13.137 74.553 12.084 Q 73.743 11.031 73.743 9.336 Z M 75.008 9.384 Q 75.008 10.642 75.527 11.353 Q 76.047 12.063 76.963 12.063 Q 78.166 12.063 78.72 10.983 L 78.72 7.586 Q 78.152 6.54 76.977 6.54 Q 76.047 6.54 75.527 7.258 Q 75.008 7.976 75.008 9.384 Z" style="fill: rgb(255, 255, 255); white-space: pre;"/>
            <path d="M 83.565 13 L 82.301 13 L 82.301 5.604 L 83.565 5.604 Z M 82.198 3.642 Q 82.198 3.334 82.386 3.122 Q 82.574 2.91 82.943 2.91 Q 83.313 2.91 83.504 3.122 Q 83.695 3.334 83.695 3.642 Q 83.695 3.949 83.504 4.154 Q 83.313 4.359 82.943 4.359 Q 82.574 4.359 82.386 4.154 Q 82.198 3.949 82.198 3.642 Z" style="fill: rgb(255, 255, 255); white-space: pre;"/>
            <path d="M 88.272 11.284 L 90.104 5.604 L 91.396 5.604 L 88.744 13 L 87.78 13 L 85.101 5.604 L 86.393 5.604 Z" style="fill: rgb(255, 255, 255); white-space: pre;"/>
            <path d="M 94.237 13 L 92.973 13 L 92.973 5.604 L 94.237 5.604 Z M 92.87 3.642 Q 92.87 3.334 93.058 3.122 Q 93.246 2.91 93.615 2.91 Q 93.984 2.91 94.176 3.122 Q 94.367 3.334 94.367 3.642 Q 94.367 3.949 94.176 4.154 Q 93.984 4.359 93.615 4.359 Q 93.246 4.359 93.058 4.154 Q 92.87 3.949 92.87 3.642 Z" style="fill: rgb(255, 255, 255); white-space: pre;"/>
            <path d="M 100.826 11.038 Q 100.826 10.525 100.44 10.242 Q 100.054 9.958 99.093 9.753 Q 98.133 9.548 97.569 9.261 Q 97.005 8.974 96.735 8.577 Q 96.465 8.181 96.465 7.634 Q 96.465 6.725 97.234 6.096 Q 98.003 5.467 99.199 5.467 Q 100.457 5.467 101.24 6.116 Q 102.022 6.766 102.022 7.777 L 100.751 7.777 Q 100.751 7.258 100.31 6.882 Q 99.869 6.506 99.199 6.506 Q 98.509 6.506 98.119 6.807 Q 97.729 7.107 97.729 7.593 Q 97.729 8.051 98.092 8.283 Q 98.454 8.516 99.401 8.728 Q 100.348 8.939 100.936 9.233 Q 101.523 9.527 101.807 9.941 Q 102.091 10.354 102.091 10.949 Q 102.091 11.94 101.298 12.539 Q 100.505 13.137 99.24 13.137 Q 98.352 13.137 97.668 12.822 Q 96.984 12.508 96.598 11.944 Q 96.212 11.38 96.212 10.724 L 97.477 10.724 Q 97.511 11.359 97.986 11.732 Q 98.461 12.104 99.24 12.104 Q 99.958 12.104 100.392 11.814 Q 100.826 11.523 100.826 11.038 Z" style="fill: rgb(255, 255, 255); white-space: pre;"/>
            <path d="M 105.362 13 L 104.098 13 L 104.098 5.604 L 105.362 5.604 Z M 103.995 3.642 Q 103.995 3.334 104.183 3.122 Q 104.371 2.91 104.74 2.91 Q 105.109 2.91 105.301 3.122 Q 105.492 3.334 105.492 3.642 Q 105.492 3.949 105.301 4.154 Q 105.109 4.359 104.74 4.359 Q 104.371 4.359 104.183 4.154 Q 103.995 3.949 103.995 3.642 Z" style="fill: rgb(255, 255, 255); white-space: pre;"/>
            <path d="M 110.069 11.284 L 111.901 5.604 L 113.193 5.604 L 110.541 13 L 109.577 13 L 106.897 5.604 L 108.189 5.604 Z" style="fill: rgb(255, 255, 255); white-space: pre;"/>
            <path d="M 117.651 13.137 Q 116.147 13.137 115.204 12.149 Q 114.261 11.161 114.261 9.507 L 114.261 9.274 Q 114.261 8.174 114.681 7.309 Q 115.102 6.444 115.857 5.956 Q 116.612 5.467 117.494 5.467 Q 118.937 5.467 119.736 6.417 Q 120.536 7.367 120.536 9.138 L 120.536 9.664 L 115.525 9.664 Q 115.553 10.758 116.165 11.431 Q 116.776 12.104 117.72 12.104 Q 118.39 12.104 118.854 11.831 Q 119.319 11.558 119.668 11.106 L 120.44 11.708 Q 119.511 13.137 117.651 13.137 Z M 117.494 6.506 Q 116.729 6.506 116.209 7.063 Q 115.689 7.62 115.566 8.625 L 119.271 8.625 L 119.271 8.529 Q 119.217 7.565 118.752 7.036 Q 118.287 6.506 117.494 6.506 Z" style="fill: rgb(255, 255, 255); white-space: pre;"/>
            <path d="M 123.612 13 L 122.348 13 L 122.348 2.5 L 123.612 2.5 Z" style="fill: rgb(255, 255, 255); white-space: pre;"/>
            <path d="M 128.314 11.147 L 130.037 5.604 L 131.391 5.604 L 128.417 14.142 Q 127.727 15.987 126.223 15.987 L 125.983 15.967 L 125.512 15.878 L 125.512 14.853 L 125.854 14.88 Q 126.496 14.88 126.855 14.62 Q 127.214 14.36 127.446 13.67 L 127.727 12.918 L 125.088 5.604 L 126.469 5.604 Z" style="fill: rgb(255, 255, 255); white-space: pre;"/>
            <path d="M 137.737 6.499 Q 138.578 5.467 139.925 5.467 Q 142.27 5.467 142.29 8.112 L 142.29 13 L 141.025 13 L 141.025 8.105 Q 141.019 7.306 140.66 6.923 Q 140.301 6.54 139.542 6.54 Q 138.927 6.54 138.462 6.868 Q 137.997 7.196 137.737 7.729 L 137.737 13 L 136.473 13 L 136.473 2.5 L 137.737 2.5 Z" style="fill: rgb(255, 255, 255); white-space: pre;"/>
            <path d="M 147.511 13.137 Q 146.007 13.137 145.063 12.149 Q 144.12 11.161 144.12 9.507 L 144.12 9.274 Q 144.12 8.174 144.541 7.309 Q 144.961 6.444 145.716 5.956 Q 146.472 5.467 147.354 5.467 Q 148.796 5.467 149.596 6.417 Q 150.396 7.367 150.396 9.138 L 150.396 9.664 L 145.385 9.664 Q 145.412 10.758 146.024 11.431 Q 146.636 12.104 147.579 12.104 Q 148.249 12.104 148.714 11.831 Q 149.179 11.558 149.527 11.106 L 150.3 11.708 Q 149.37 13.137 147.511 13.137 Z M 147.354 6.506 Q 146.588 6.506 146.068 7.063 Q 145.549 7.62 145.426 8.625 L 149.131 8.625 L 149.131 8.529 Q 149.076 7.565 148.611 7.036 Q 148.146 6.506 147.354 6.506 Z" style="fill: rgb(255, 255, 255); white-space: pre;"/>
          </g>
        </g>
      </g>
    </g>
  </g>
</svg>