<?xml version="1.0" encoding="utf-8"?>
<svg viewBox="0 0 180 180" xmlns="http://www.w3.org/2000/svg">
  <defs>
    <filter x="-6.8%" y="-35.2%" width="113.5%" height="201.6%" filterUnits="objectBoundingBox" id="__2TYoTZ5__filter-5">
      <feOffset dx="0" dy="1" in="SourceAlpha" result="shadowOffsetOuter1"/>
      <feGaussianBlur stdDeviation="4" in="shadowOffsetOuter1" result="shadowBlurOuter1"/>
      <feColorMatrix values="0 0 0 0 0 0 0 0 0 0 0 0 0 0 0 0 0 0 0.2 0" type="matrix" in="shadowBlurOuter1" result="shadowMatrixOuter1"/>
      <feOffset dx="0" dy="3" in="SourceAlpha" result="shadowOffsetOuter2"/>
      <feGaussianBlur stdDeviation="2" in="shadowOffsetOuter2" result="shadowBlurOuter2"/>
      <feColorMatrix values="0 0 0 0 0 0 0 0 0 0 0 0 0 0 0 0 0 0 0.12 0" type="matrix" in="shadowBlurOuter2" result="shadowMatrixOuter2"/>
      <feOffset dx="0" dy="2" in="SourceAlpha" result="shadowOffsetOuter3"/>
      <feGaussianBlur stdDeviation="1.5" in="shadowOffsetOuter3" result="shadowBlurOuter3"/>
      <feColorMatrix values="0 0 0 0 0 0 0 0 0 0 0 0 0 0 0 0 0 0 0.14 0" type="matrix" in="shadowBlurOuter3" result="shadowMatrixOuter3"/>
      <feMerge>
        <feMergeNode in="shadowMatrixOuter1"/>
        <feMergeNode in="shadowMatrixOuter2"/>
        <feMergeNode in="shadowMatrixOuter3"/>
      </feMerge>
    </filter>
  </defs>
  <g id="__2TYoTZ5__tabs_180px" stroke="none" stroke-width="1" fill="none" fill-rule="evenodd">
    <g id="__2TYoTZ5__Group-+-Tab-/-Text-Tab-/-Raised-Mask">
      <mask id="__2TYoTZ5__mask-2" fill="white">
        <rect x="0" y="0" width="180" height="180" transform="matrix(1, 0, 0, 1, 0, 0)"/>
      </mask>
      <g id="__2TYoTZ5__Mask"/>
      <g id="__2TYoTZ5__Group" mask="url(#__2TYoTZ5__mask-2)" fill="#F5F5F5">
        <g transform="translate(0.000000, 40.000000)" id="__2TYoTZ5__Rectangle">
          <rect x="0" y="0" width="225" height="166"/>
        </g>
      </g>
      <g id="__2TYoTZ5__Tab-/-Fixed-Tabs-/-Text-Labels-Only-/-Raised" mask="url(#__2TYoTZ5__mask-2)">
        <g transform="translate(0.000000, 30.000000)">
          <mask id="__2TYoTZ5__mask-4" fill="white">
            <rect x="0" y="0" width="288" height="38.4" transform="matrix(1, 0, 0, 1, 0, 0)"/>
          </mask>
          <g id="__2TYoTZ5__Surface" stroke="none" fill="none">
            <rect x="0" y="0" width="288" height="38.4" transform="matrix(1, 0, 0, 1, 0, 0)" fill="black" fill-opacity="1" filter="url(#__2TYoTZ5__filter-5)"/>
            <rect x="0" y="0" width="288" height="38.4" transform="matrix(1, 0, 0, 1, 0, 0)" fill="#FAFAFA" fill-rule="evenodd"/>
          </g>
          <g id="__2TYoTZ5__✱-/-Color-/-Surface-/-Primary-or-Secondary" stroke="none" fill="none" mask="url(#__2TYoTZ5__mask-4)" fill-rule="evenodd">
            <g id="__2TYoTZ5__✱-/-Color-/-Primary-/-500" fill="#212121">
              <rect id="__2TYoTZ5__Rectangle-13" x="0" y="0" width="288" height="38"/>
            </g>
          </g>
          <g id="__2TYoTZ5__Tab-/-Elements-/-Text-Tab-/-Inactive-/-Enabled" stroke="none" fill="none" mask="url(#__2TYoTZ5__mask-4)">
            <g transform="translate(192.000000, 0.000000)">
              <mask id="__2TYoTZ5__mask-7" fill="white">
                <rect x="0" y="0" width="96" height="38.4" transform="matrix(1, 0, 0, 1, 0, 0)"/>
              </mask>
              <g id="__2TYoTZ5__Surface" stroke="none" fill="none"/>
              <g id="__2TYoTZ5__✱-/-Text-/-Button-/-White-/-High-Emphasis-/-Center" stroke="none" fill="none" mask="url(#__2TYoTZ5__mask-7)" font-family="Roboto" font-size="11.2" font-weight="400" letter-spacing="1" line-spacing="12.8">
                <g transform="translate(0.000000, 12.800000)" id="__2TYoTZ5__Button">
                  <path d="M 32.251 0.873 L 29.691 0.873 L 29.691 7.971 L 28.647 7.971 L 28.647 0.873 L 26.093 0.873 L 26.093 0.009 L 32.251 0.009 Z" style="fill: rgb(255, 255, 255); white-space: pre;"/>
                  <path d="M 38.38 5.893 L 35.045 5.893 L 34.295 7.971 L 33.213 7.971 L 36.253 0.009 L 37.172 0.009 L 40.218 7.971 L 39.141 7.971 Z M 35.362 5.029 L 38.069 5.029 L 36.713 1.305 Z" style="fill: rgb(255, 255, 255); white-space: pre;"/>
                  <path d="M 42.28 7.971 L 42.28 0.009 L 44.884 0.009 Q 46.18 0.009 46.833 0.545 Q 47.487 1.08 47.487 2.13 Q 47.487 2.688 47.17 3.118 Q 46.852 3.547 46.305 3.782 Q 46.951 3.962 47.325 4.468 Q 47.7 4.974 47.7 5.674 Q 47.7 6.746 47.005 7.359 Q 46.311 7.971 45.042 7.971 Z M 43.33 4.247 L 43.33 7.112 L 45.064 7.112 Q 45.797 7.112 46.221 6.732 Q 46.645 6.352 46.645 5.685 Q 46.645 4.247 45.08 4.247 Z M 43.33 3.405 L 44.916 3.405 Q 45.605 3.405 46.018 3.06 Q 46.431 2.716 46.431 2.125 Q 46.431 1.469 46.048 1.171 Q 45.666 0.873 44.884 0.873 L 43.33 0.873 Z" style="fill: rgb(255, 255, 255); white-space: pre;"/>
                </g>
              </g>
            </g>
          </g>
          <g id="__2TYoTZ5__Tab-/-Elements-/-Text-Tab-/-Inactive-/-Enabled" stroke="none" fill="none" mask="url(#__2TYoTZ5__mask-4)">
            <g transform="translate(96.000000, 0.000000)">
              <mask id="__2TYoTZ5__mask-9" fill="white">
                <rect x="0" y="0" width="96" height="38.4" transform="matrix(1, 0, 0, 1, 0, 0)"/>
              </mask>
              <g id="__2TYoTZ5__Surface" stroke="none" fill="none"/>
              <g id="__2TYoTZ5__✱-/-Text-/-Button-/-White-/-High-Emphasis-/-Center" stroke="none" fill="none" mask="url(#__2TYoTZ5__mask-9)" font-family="Roboto" font-size="11.2" font-weight="400" letter-spacing="1" line-spacing="12.8">
                <g transform="translate(0.000000, 12.800000)" id="__2TYoTZ5__Button">
                  <path d="M 32.251 0.873 L 29.691 0.873 L 29.691 7.971 L 28.647 7.971 L 28.647 0.873 L 26.093 0.873 L 26.093 0.009 L 32.251 0.009 Z" style="fill: rgb(255, 255, 255); white-space: pre;"/>
                  <path d="M 38.38 5.893 L 35.045 5.893 L 34.295 7.971 L 33.213 7.971 L 36.253 0.009 L 37.172 0.009 L 40.218 7.971 L 39.141 7.971 Z M 35.362 5.029 L 38.069 5.029 L 36.713 1.305 Z" style="fill: rgb(255, 255, 255); white-space: pre;"/>
                  <path d="M 42.28 7.971 L 42.28 0.009 L 44.884 0.009 Q 46.18 0.009 46.833 0.545 Q 47.487 1.08 47.487 2.13 Q 47.487 2.688 47.17 3.118 Q 46.852 3.547 46.305 3.782 Q 46.951 3.962 47.325 4.468 Q 47.7 4.974 47.7 5.674 Q 47.7 6.746 47.005 7.359 Q 46.311 7.971 45.042 7.971 Z M 43.33 4.247 L 43.33 7.112 L 45.064 7.112 Q 45.797 7.112 46.221 6.732 Q 46.645 6.352 46.645 5.685 Q 46.645 4.247 45.08 4.247 Z M 43.33 3.405 L 44.916 3.405 Q 45.605 3.405 46.018 3.06 Q 46.431 2.716 46.431 2.125 Q 46.431 1.469 46.048 1.171 Q 45.666 0.873 44.884 0.873 L 43.33 0.873 Z" style="fill: rgb(255, 255, 255); white-space: pre;"/>
                </g>
              </g>
            </g>
          </g>
          <g id="__2TYoTZ5__Tab-/-Elements-/-Text-Tab-/-Active-/-Enabled" stroke="none" fill="none" mask="url(#__2TYoTZ5__mask-4)">
            <mask id="__2TYoTZ5__mask-11" fill="white">
              <rect x="0" y="0" width="96" height="38.4" transform="matrix(1, 0, 0, 1, 0, 0)"/>
            </mask>
            <g id="__2TYoTZ5__Surface"/>
            <g id="__2TYoTZ5__Tab-/-Elements-/-Indicator" mask="url(#__2TYoTZ5__mask-11)" fill="#FFFFFF" fill-rule="evenodd">
              <g id="__2TYoTZ5__✱-/-Color-/-Surface-/-Base" transform="translate(0.000000, 36.000000)">
                <rect id="__2TYoTZ5__Rectangle-13" x="0" y="0" width="96" height="2"/>
              </g>
            </g>
            <g id="__2TYoTZ5__✱-/-Text-/-Button-/-White-/-High-Emphasis-/-Center" mask="url(#__2TYoTZ5__mask-11)" font-family="Roboto" font-size="11.2" font-weight="400" letter-spacing="1" line-spacing="12.8">
              <g transform="translate(0.000000, 12.800000)" id="__2TYoTZ5__Button">
                <path d="M 10.296 7.971 L 9.246 7.971 L 9.246 0.009 L 10.296 0.009 Z" style="fill: rgb(255, 255, 255); white-space: pre;"/>
                <path d="M 18.546 0.873 L 15.986 0.873 L 15.986 7.971 L 14.942 7.971 L 14.942 0.873 L 12.388 0.873 L 12.388 0.009 L 18.546 0.009 Z" style="fill: rgb(255, 255, 255); white-space: pre;"/>
                <path d="M 25.217 4.291 L 21.766 4.291 L 21.766 7.112 L 25.775 7.112 L 25.775 7.971 L 20.716 7.971 L 20.716 0.009 L 25.72 0.009 L 25.72 0.873 L 21.766 0.873 L 21.766 3.432 L 25.217 3.432 Z" style="fill: rgb(255, 255, 255); white-space: pre;"/>
                <path d="M 29.432 0.009 L 32.035 6.505 L 34.638 0.009 L 36 0.009 L 36 7.971 L 34.95 7.971 L 34.95 4.87 L 35.048 1.523 L 32.434 7.971 L 31.63 7.971 L 29.021 1.54 L 29.125 4.87 L 29.125 7.971 L 28.075 7.971 L 28.075 0.009 Z" style="fill: rgb(255, 255, 255); white-space: pre;"/>
                <path d="M 48.747 4.247 Q 48.747 5.417 48.354 6.289 Q 47.96 7.162 47.238 7.621 Q 46.516 8.08 45.554 8.08 Q 44.613 8.08 43.886 7.618 Q 43.158 7.156 42.756 6.3 Q 42.354 5.445 42.343 4.318 L 42.343 3.744 Q 42.343 2.595 42.743 1.715 Q 43.142 0.834 43.872 0.367 Q 44.602 -0.101 45.543 -0.101 Q 46.5 -0.101 47.23 0.361 Q 47.96 0.823 48.354 1.701 Q 48.747 2.579 48.747 3.744 Z M 47.703 3.733 Q 47.703 2.316 47.134 1.559 Q 46.565 0.802 45.543 0.802 Q 44.547 0.802 43.976 1.559 Q 43.404 2.316 43.388 3.662 L 43.388 4.247 Q 43.388 5.62 43.965 6.404 Q 44.542 7.189 45.554 7.189 Q 46.571 7.189 47.129 6.448 Q 47.686 5.707 47.703 4.323 Z" style="fill: rgb(255, 255, 255); white-space: pre;"/>
                <path d="M 57.429 7.971 L 56.374 7.971 L 52.365 1.835 L 52.365 7.971 L 51.31 7.971 L 51.31 0.009 L 52.365 0.009 L 56.385 6.172 L 56.385 0.009 L 57.429 0.009 Z" style="fill: rgb(255, 255, 255); white-space: pre;"/>
                <path d="M 64.779 4.291 L 61.329 4.291 L 61.329 7.112 L 65.337 7.112 L 65.337 7.971 L 60.279 7.971 L 60.279 0.009 L 65.282 0.009 L 65.282 0.873 L 61.329 0.873 L 61.329 3.432 L 64.779 3.432 Z" style="fill: rgb(255, 255, 255); white-space: pre;"/>
              </g>
            </g>
          </g>
        </g>
      </g>
    </g>
  </g>
</svg>