<?xml version="1.0" encoding="utf-8"?>
<svg viewBox="0 0 180 180" xmlns="http://www.w3.org/2000/svg">
  <g id="__38Y2TWt__top_app_bar_180px" stroke="none" stroke-width="1" fill="none" fill-rule="evenodd" transform="matrix(1, 0, 0, 0.9999999999999998, 1.7763568394002505e-15, -1.7763568394002505e-15)">
    <mask id="__38Y2TWt__mask-2" fill="white">
      <rect x="0" y="0" width="180" height="180"/>
    </mask>
    <rect id="__38Y2TWt__Mask" x="0" y="0" width="180" height="180" fill="#FAFAFA"/>
    <g id="__38Y2TWt__Dialog-/-Header-Copy-2" mask="url(#__38Y2TWt__mask-2)">
      <g transform="translate(30.000000, 0.000000)" id="__38Y2TWt__Group-3">
        <g>
          <rect id="__38Y2TWt__Rectangle" fill="#F5F5F5" x="0" y="0" width="150" height="188"/>
          <g id="__38Y2TWt__App-Bar-/-Top-/-Extended-/-Flat">
            <mask id="__38Y2TWt__mask-4" fill="white">
              <rect x="0" y="0" width="288" height="102"/>
            </mask>
            <rect id="__38Y2TWt__Surface" x="0" y="0" width="288" height="102" fill="#FAFAFA"/>
            <g id="__38Y2TWt__✱-/-Color-/-Primary-/-Main" mask="url(#__38Y2TWt__mask-4)" fill="#212121">
              <g id="__38Y2TWt__✱-/-Color-/-Primary-/-900">
                <g>
                  <rect id="__38Y2TWt__Rectangle-13" x="0" y="0" width="288" height="102"/>
                </g>
              </g>
            </g>
            <g id="__38Y2TWt__Text-/-H6-/-P---Dark-/-Left" mask="url(#__38Y2TWt__mask-4)" font-family="Roboto-Medium, Roboto" font-size="16" font-weight="400" letter-spacing="0.120000005">
              <g transform="translate(47.000000, 66.000000)" id="__38Y2TWt__Headline-6">
                <path d="M 9.18 4.859 L 5.523 4.859 L 5.523 15 L 4.031 15 L 4.031 4.859 L 0.383 4.859 L 0.383 3.625 L 9.18 3.625 Z M 9.589 10.695 Q 9.589 9.453 10.077 8.461 Q 10.565 7.469 11.436 6.93 Q 12.308 6.391 13.425 6.391 Q 15.151 6.391 16.218 7.586 Q 17.284 8.781 17.284 10.766 L 17.284 10.867 Q 17.284 12.102 16.811 13.082 Q 16.339 14.062 15.46 14.609 Q 14.581 15.156 13.44 15.156 Q 11.722 15.156 10.655 13.961 Q 9.589 12.766 9.589 10.797 Z M 11.042 10.867 Q 11.042 12.273 11.694 13.125 Q 12.347 13.977 13.44 13.977 Q 14.542 13.977 15.19 13.113 Q 15.839 12.25 15.839 10.695 Q 15.839 9.305 15.179 8.441 Q 14.518 7.578 13.425 7.578 Q 12.354 7.578 11.698 8.43 Q 11.042 9.281 11.042 10.867 Z M 26.359 10.867 Q 26.359 12.797 25.477 13.977 Q 24.594 15.156 23.086 15.156 Q 21.547 15.156 20.664 14.18 L 20.664 18.25 L 19.219 18.25 L 19.219 6.547 L 20.539 6.547 L 20.609 7.484 Q 21.492 6.391 23.063 6.391 Q 24.586 6.391 25.473 7.539 Q 26.359 8.687 26.359 10.734 Z M 24.914 10.703 Q 24.914 9.273 24.305 8.445 Q 23.695 7.617 22.633 7.617 Q 21.32 7.617 20.664 8.781 L 20.664 12.82 Q 21.313 13.977 22.648 13.977 Q 23.688 13.977 24.301 13.152 Q 24.914 12.328 24.914 10.703 Z M 38.894 12.031 L 34.129 12.031 L 33.058 15 L 31.511 15 L 35.855 3.625 L 37.168 3.625 L 41.519 15 L 39.98 15 Z M 34.582 10.797 L 38.449 10.797 L 36.511 5.477 Z M 50.081 10.867 Q 50.081 12.797 49.198 13.977 Q 48.315 15.156 46.808 15.156 Q 45.268 15.156 44.386 14.18 L 44.386 18.25 L 42.94 18.25 L 42.94 6.547 L 44.261 6.547 L 44.331 7.484 Q 45.214 6.391 46.784 6.391 Q 48.308 6.391 49.194 7.539 Q 50.081 8.687 50.081 10.734 Z M 48.636 10.703 Q 48.636 9.273 48.026 8.445 Q 47.417 7.617 46.354 7.617 Q 45.042 7.617 44.386 8.781 L 44.386 12.82 Q 45.034 13.977 46.37 13.977 Q 47.409 13.977 48.022 13.152 Q 48.636 12.328 48.636 10.703 Z M 59.186 10.867 Q 59.186 12.797 58.303 13.977 Q 57.42 15.156 55.913 15.156 Q 54.374 15.156 53.491 14.18 L 53.491 18.25 L 52.045 18.25 L 52.045 6.547 L 53.366 6.547 L 53.436 7.484 Q 54.319 6.391 55.889 6.391 Q 57.413 6.391 58.299 7.539 Q 59.186 8.687 59.186 10.734 Z M 57.741 10.703 Q 57.741 9.273 57.131 8.445 Q 56.522 7.617 55.46 7.617 Q 54.147 7.617 53.491 8.781 L 53.491 12.82 Q 54.139 13.977 55.475 13.977 Q 56.514 13.977 57.127 13.152 Q 57.741 12.328 57.741 10.703 Z M 65.44 15 L 65.44 3.625 L 69.158 3.625 Q 71.01 3.625 71.944 4.391 Q 72.877 5.156 72.877 6.656 Q 72.877 7.453 72.424 8.066 Q 71.971 8.68 71.19 9.016 Q 72.112 9.273 72.647 9.996 Q 73.182 10.719 73.182 11.719 Q 73.182 13.25 72.19 14.125 Q 71.197 15 69.385 15 Z M 66.94 9.68 L 66.94 13.773 L 69.416 13.773 Q 70.463 13.773 71.069 13.23 Q 71.674 12.687 71.674 11.734 Q 71.674 9.68 69.44 9.68 Z M 66.94 8.477 L 69.205 8.477 Q 70.19 8.477 70.779 7.984 Q 71.369 7.492 71.369 6.648 Q 71.369 5.711 70.822 5.285 Q 70.276 4.859 69.158 4.859 L 66.94 4.859 Z M 80.503 15 Q 80.378 14.75 80.3 14.109 Q 79.292 15.156 77.893 15.156 Q 76.643 15.156 75.843 14.449 Q 75.042 13.742 75.042 12.656 Q 75.042 11.336 76.046 10.605 Q 77.05 9.875 78.87 9.875 L 80.276 9.875 L 80.276 9.211 Q 80.276 8.453 79.823 8.004 Q 79.37 7.555 78.487 7.555 Q 77.714 7.555 77.19 7.945 Q 76.667 8.336 76.667 8.891 L 75.214 8.891 Q 75.214 8.258 75.663 7.668 Q 76.112 7.078 76.882 6.734 Q 77.651 6.391 78.573 6.391 Q 80.034 6.391 80.862 7.121 Q 81.69 7.852 81.722 9.133 L 81.722 13.023 Q 81.722 14.187 82.018 14.875 L 82.018 15 Z M 78.104 13.898 Q 78.784 13.898 79.393 13.547 Q 80.003 13.195 80.276 12.633 L 80.276 10.898 L 79.143 10.898 Q 76.487 10.898 76.487 12.453 Q 76.487 13.133 76.94 13.516 Q 77.393 13.898 78.104 13.898 Z M 88.191 7.844 Q 87.863 7.789 87.48 7.789 Q 86.058 7.789 85.55 9 L 85.55 15 L 84.105 15 L 84.105 6.547 L 85.511 6.547 L 85.535 7.523 Q 86.246 6.391 87.55 6.391 Q 87.972 6.391 88.191 6.5 Z" style="fill: rgb(255, 255, 255);"/>
              </g>
            </g>
            <g id="__38Y2TWt__Icons-" mask="url(#__38Y2TWt__mask-4)">
              <g transform="translate(12.800000, 12.750000)" id="__38Y2TWt__Icon-1">
                <g>
                  <g id="__38Y2TWt__Icon-/-Menu-/-Fill">
                    <mask id="__38Y2TWt__mask-6" fill="white">
                      <path d="M2.4,14.4 L16.8,14.4 L16.8,12.8 L2.4,12.8 L2.4,14.4 Z M2.4,10.4 L16.8,10.4 L16.8,8.8 L2.4,8.8 L2.4,10.4 Z M2.4,4.8 L2.4,6.4 L16.8,6.4 L16.8,4.8 L2.4,4.8 Z"/>
                    </mask>
                    <g id="__38Y2TWt__Mask" fill-rule="nonzero"/>
                    <g id="__38Y2TWt__✱-/-Color-/-Icons-/-White-/-100%" mask="url(#__38Y2TWt__mask-6)" fill="#FFFFFF" fill-rule="evenodd">
                      <rect id="__38Y2TWt__Rectangle-13" x="0" y="0" width="18.9530864" height="18.9530864"/>
                    </g>
                  </g>
                </g>
              </g>
            </g>
          </g>
        </g>
      </g>
    </g>
  </g>
</svg>